<?xml version="1.0" encoding="UTF-8" standalone="no"?>
<!-- Created with Inkscape (http://www.inkscape.org/) -->

<svg
   xmlns:dc="http://purl.org/dc/elements/1.1/"
   xmlns:cc="http://creativecommons.org/ns#"
   xmlns:rdf="http://www.w3.org/1999/02/22-rdf-syntax-ns#"
   xmlns:svg="http://www.w3.org/2000/svg"
   xmlns="http://www.w3.org/2000/svg"
   xmlns:sodipodi="http://sodipodi.sourceforge.net/DTD/sodipodi-0.dtd"
   xmlns:inkscape="http://www.inkscape.org/namespaces/inkscape"
   width="244.30135mm"
   height="42.560921mm"
   viewBox="0 0 244.30134 42.560921"
   version="1.1"
   id="svg5706"
   inkscape:version="0.92.5 (2060ec1f9f, 2020-04-08)"
   sodipodi:docname="middagsasen-banner-white.svg">
  <defs
     id="defs5700" />
  <sodipodi:namedview
     id="base"
     pagecolor="#ffffff"
     bordercolor="#666666"
     borderopacity="1.0"
     inkscape:pageopacity="0.0"
     inkscape:pageshadow="2"
     inkscape:zoom="1.4"
     inkscape:cx="467.81203"
     inkscape:cy="-49.020691"
     inkscape:document-units="mm"
     inkscape:current-layer="layer1"
     showgrid="true"
     inkscape:window-width="1920"
     inkscape:window-height="1009"
     inkscape:window-x="-8"
     inkscape:window-y="-8"
     inkscape:window-maximized="1"
     showguides="false">
    <inkscape:grid
       type="xygrid"
       id="grid884"
       originx="-3.4261915e-07"
       originy="3.0993654e-06" />
  </sodipodi:namedview>
  <metadata
     id="metadata5703">
    <rdf:RDF>
      <cc:Work
         rdf:about="">
        <dc:format>image/svg+xml</dc:format>
        <dc:type
           rdf:resource="http://purl.org/dc/dcmitype/StillImage" />
        <dc:title></dc:title>
      </cc:Work>
    </rdf:RDF>
  </metadata>
  <g
     inkscape:label="Layer 1"
     inkscape:groupmode="layer"
     id="layer1"
     transform="translate(-12.345426,-107.09891)">
    <path
       inkscape:connector-curvature="0"
       id="path4540"
       style="fill:#2a3276;fill-opacity:1;fill-rule:evenodd;stroke:none;stroke-width:0.35277775"
       d="m 73.706498,123.85214 c -2.722385,2.93229 -2.8067,3.11785 -5.758391,6.0191 -3.037417,2.98697 -3.247319,3.82446 -5.551663,4.13914 -1.938514,0.26423 -2.477206,-1.03117 -6.103056,-3.87985 -3.162652,-2.48497 -3.567994,-3.00002 -6.88481,-4.98158 v 0 l -1.662642,-0.97578 v 0 c -4.920547,-2.84903 -4.492626,-2.75308 -9.323918,1.03611 -2.91465,2.28565 -4.534605,3.40713 -6.182077,4.49015 -3.991328,0.11607 -9.007827,1.03964 -12.375797,2.78801 -2.576336,1.33703 -6.140802,3.03494 -7.1247,6.10305 -2.7671885,8.63318 9.780059,9.96668 14.592299,9.00854 2.858912,-0.56904 8.184797,-2.28071 12.127794,-4.12504 2.456744,-1.14935 4.333875,-2.17134 7.300384,-2.01859 1.788936,0.78034 -0.373239,3.63643 -0.674864,5.13433 -0.331259,1.64959 1.631598,2.82398 3.169004,2.99579 4.233685,0.47272 7.993237,-1.63266 11.155537,-3.88832 5.503334,-3.92465 13.697305,-5.83424 20.892559,-5.45147 3.481564,0.18556 6.886927,0.38664 10.436931,-0.17675 3.429352,-0.54433 10.146592,-0.41063 13.844062,0.15029 -3.88832,-1.0795 -10.335687,-1.79811 -14.409212,-1.14053 -3.998031,0.64558 -8.410223,0.20778 -12.453408,-0.007 -4.505677,-0.23848 -8.219017,-0.85478 -12.389202,0.756 -3.225096,1.24601 -6.454071,3.0152 -9.507363,4.57835 -1.126419,0.57644 -3.421944,1.7452 -4.640792,0.5461 -1.280935,-1.25976 0.30198,-1.42522 -0.159808,-2.64477 -0.279045,-0.7366 -1.039635,-1.39488 -1.649587,-1.88489 -3.557058,-2.86103 -7.866947,-1.25095 -11.794421,0.012 -3.751439,1.20615 -22.959835,7.24535 -21.361046,-1.59632 0.475544,-2.63242 3.067403,-4.73251 5.110691,-5.7912 2.08527,-1.0795 5.939719,-2.46415 8.605661,-2.49731 -0.564092,0.36654 -1.165578,0.75918 -1.850672,1.21567 -5.67831,3.78531 -11.672005,7.36106 -11.672005,7.36106 0,0 6.658328,-2.21932 13.144499,-5.67831 6.415969,-3.42229 6.449836,-3.63961 9.779352,-5.67831 3.518252,-2.15512 6.115051,-1.26612 7.928328,-0.23001 1.812573,1.03611 4.661958,4.14443 6.215946,5.69842 1.554692,1.55399 4.278842,4.33282 6.868935,4.33282 2.590449,0 4.779082,-0.36724 7.483124,-3.07199 2.618316,-2.61797 1.357487,-1.21074 4.206168,-4.83694 2.849385,-3.62585 3.513312,-4.8641 4.543425,-5.18195 0.924983,-0.2861 2.291996,1.29187 3.763785,3.07904 1.518002,1.84327 1.184627,1.42523 3.890434,3.68053 3.141839,2.61797 3.565877,2.81411 6.41491,4.62668 2.849033,1.81293 4.643967,2.32552 7.295092,2.85645 1.047046,0.20919 6.417026,0.20179 5.445476,0.10442 -2.58974,-0.25929 -4.42383,-0.71932 -7.272512,-2.01472 -2.848681,-1.29504 -2.251075,-0.82973 -5.468056,-3.36444 -3.45581,-2.72309 -4.101042,-3.5754 -6.319308,-6.24557 -1.994959,-2.40101 -2.408413,-2.4825 -4.817179,-5.02638 -1.876073,-1.98191 -3.081163,-1.87925 -4.961467,-0.18944 v 0 l -1.84644,1.86513" />
    <path
       inkscape:connector-curvature="0"
       id="path4542"
       style="fill:#1c1e21;fill-opacity:1;fill-rule:evenodd;stroke:none;stroke-width:0.35277775"
       d="m 17.313208,121.86988 c 0.01799,0.0639 0.105128,0.2159 0.219428,0.22331 0.08467,0.005 0.154164,-0.0797 0.173214,-0.27058 0.361597,-0.0293 1.804105,-0.14358 2.269419,-0.16616 0.316795,-0.0162 0.430389,0.10548 0.530578,0.21273 0.0642,0.0695 0.124178,0.13547 0.228953,0.14852 0.220839,0.0257 1.171222,-0.0466 1.359252,-0.0614 0.136878,0.15946 0.260351,0.21802 0.286809,0.22896 0.06209,0.0519 0.162983,0.0519 0.199672,0.0497 0.12947,0.0924 0.280106,0.0353 0.337961,0.006 0.0088,0.0102 0.01693,0.0205 0.02364,0.0293 0.02822,0.0356 0.04974,0.0628 0.08396,0.0607 0.04833,-0.004 0.07832,-0.0593 0.191558,-0.26988 0.176389,-0.32844 0.04198,-0.53693 0.01411,-0.57573 -0.0095,-0.036 -0.06209,-0.23848 -0.07091,-0.48825 -0.0067,-0.19014 0.141111,-0.62089 0.271286,-1.00153 0.05786,-0.16898 0.112537,-0.32773 0.149931,-0.4572 0.01093,-0.0335 0.02434,-0.0783 0.04022,-0.13088 v 0 0 c 0.16263,-0.53693 0.594077,-1.92052 0.669572,-2.16112 0.100894,0.073 0.162983,0.11713 0.165453,0.11854 v 0 l 0.0042,0.003 0.0042,0.001 v 0 c 0.0046,0.001 0.35066,0.115 0.551038,-0.0459 0.06809,0.0473 0.231775,0.16651 0.301978,0.2413 0.0829,0.0864 0.249061,0.40534 0.289983,0.51717 -0.05715,0.16475 -0.739775,2.18087 -0.918985,2.96369 -0.170391,0.744 -0.219428,0.92321 -0.226836,0.94756 -0.02328,0.0409 -0.167569,0.29915 -0.159455,0.4191 0.0028,0.0519 -0.187325,0.32349 -0.314678,0.502 -0.1778,0.25365 -0.286809,0.4124 -0.300567,0.48366 -0.01623,0.0716 -0.01093,0.12947 -0.0067,0.17462 0.0053,0.0512 0.0067,0.0755 -0.01305,0.0974 -0.0088,0.0102 -0.02575,0.0265 -0.04692,0.0455 -0.105128,0.0963 -0.301273,0.27658 -0.329848,0.49283 -0.02787,0.21378 0.0028,0.40922 0.01517,0.47272 -0.05468,0.0416 -0.218722,0.19403 -0.26035,0.51294 -0.04092,0.3175 0.01164,0.50412 0.02999,0.55598 -0.03281,0.066 -0.199672,0.38558 -0.44838,0.58808 -0.258939,0.21096 -0.286104,0.53869 -0.28822,0.62336 -0.07161,0.0931 -0.04904,0.21942 -0.0381,0.26282 v 0 l -0.0088,0.013 v 0 c -1.393825,1.25165 -2.768247,2.49026 -2.856795,2.59574 -0.170391,0.20496 -0.376061,0.34395 -0.735189,0.49953 -0.101247,0.0441 -0.153105,0.10407 -0.1524,0.18027 0.0014,0.18344 0.323498,0.37606 0.44697,0.43603 0.191205,0.0907 0.409222,0.19227 0.594783,0 0.09878,-0.10336 2.609145,-2.47226 4.579056,-4.33035 -0.610658,0.80469 -1.062919,1.40688 -1.104547,1.48202 -0.129469,0.23284 -0.306564,0.41064 -0.630766,0.62865 -0.09137,0.0621 -0.130176,0.13159 -0.11536,0.20708 0.03422,0.18063 0.383118,0.31292 0.515057,0.3489 0.202494,0.054 0.432153,0.11783 0.580672,-0.1076 0.128764,-0.19755 5.546371,-7.66445 5.60211,-7.73959 v 0 l 0.01164,-0.0176 -0.01164,-0.019 v 0 c -0.131233,-0.2099 -0.268464,-0.33125 -0.410633,-0.36124 -0.126647,-0.0265 -0.207081,0.0314 -0.209197,0.0335 v 0 l -0.0042,0.003 -0.0025,0.005 -0.487186,0.65405 v 0 c 0.04692,-0.40675 0.100189,-0.93803 0.100189,-1.10702 0.174272,-0.0716 1.380066,-0.62476 1.128888,-1.9371 -0.108302,-0.57079 -0.252236,-0.82973 -0.339372,-0.98354 -0.02787,-0.0511 -0.05045,-0.0914 -0.06279,-0.12559 -0.01834,-0.0543 -0.02364,-0.11077 -0.02716,-0.16545 -0.0081,-0.0878 -0.01764,-0.17851 -0.08043,-0.2533 -0.01482,-0.10371 -0.138995,-0.98178 -0.332317,-1.27811 v 0 l 0.01764,-0.0219 v 0 c 0.127353,-0.006 1.050572,-0.0554 1.425928,-0.12594 v 0 l 0.478366,0.67239 v 0 c -0.02858,0.14993 -0.133703,0.73307 -0.05256,0.84138 v 0 l -0.0035,-0.004 v 0 c 0.01729,0.0356 0.178506,0.34819 0.319617,0.35983 0.118533,0.009 0.446969,0.006 0.557389,-0.0533 0.1016,-0.055 0.406753,-0.32068 0.420158,-0.33161 v 0 l 0.0056,-0.006 0.0014,-0.004 v 0 c 0.239889,-0.0423 2.142067,-0.37289 2.39395,-0.40675 0.132997,-0.0183 0.292453,-0.14464 0.477661,-0.29105 0.203553,-0.16157 0.433917,-0.34607 0.673806,-0.41557 0.414866,-0.12065 1.240719,-0.37253 1.386416,-0.41698 0.118533,0.25082 0.362303,0.39511 0.570089,0.32491 0.181328,-0.0607 0.284339,-0.28611 0.252942,-0.52776 0.01976,-0.006 0.0314,-0.0102 0.0321,-0.0102 v 0 l 0.280459,-0.10371 -0.0081,-0.0402 -0.348192,0.005 v 0 c -0.05997,-0.15417 -0.167569,-0.28011 -0.297039,-0.34537 -0.09807,-0.0487 -0.200025,-0.0575 -0.2921,-0.0268 -0.173919,0.0586 -0.269875,0.25011 -0.255411,0.46813 -0.14993,0.0448 -0.984602,0.29281 -1.398058,0.41275 -0.246592,0.0723 -0.480483,0.25823 -0.686858,0.42263 -0.180623,0.14358 -0.335845,0.26705 -0.458611,0.28328 -0.251884,0.0335 -2.086681,0.33443 -2.320925,0.37218 -0.0575,-0.0526 -0.189442,-0.25435 -0.210609,-0.33408 -0.01305,-0.0469 -0.05785,-0.0864 -0.109008,-0.13088 -0.05786,-0.0508 -0.123472,-0.1076 -0.140406,-0.1778 -0.06138,-0.254 -0.272697,-1.09679 -0.40393,-1.30316 -0.0956,-0.14711 -0.299156,-0.18521 -0.583142,-0.23919 -0.121355,-0.0233 -0.26035,-0.0497 -0.406753,-0.0885 -0.261761,-0.0702 -0.465313,-0.0374 -0.627591,-0.01 -0.136878,0.0219 -0.245181,0.0402 -0.35172,-0.003 -0.243064,-0.096 -0.898525,-0.1083 -0.995891,-0.11041 -0.117123,-0.0974 -0.290336,-0.0864 -0.340078,-0.0815 -0.341842,-0.25753 -0.653345,-0.14253 -0.726017,-0.11042 -0.155575,-0.073 -0.477661,0.0109 -0.496005,0.0162 v 0 l -0.519289,0.11995 v 0 c -0.05115,-0.009 -0.352778,-0.055 -0.573617,0.0885 v 0 l 0.01623,0.0226 v 0 c -0.01023,-0.0123 -0.01905,-0.024 -0.02716,-0.0349 -0.129469,-0.17498 -0.823735,-0.75 -1.626304,-0.15593 -0.246592,0.18204 -0.436034,0.53482 -0.483659,0.89606 -0.02928,0.2226 -0.01764,0.54822 0.198967,0.83996 0.0448,0.0607 0.09596,0.12136 0.151342,0.1831 v 0 l -0.417689,2.14559 v 0 c -0.02258,0.0409 -0.182034,0.35772 -0.188031,0.63888 -0.02681,0.0751 -0.353131,1.03787 -0.200378,2.07045 -0.0042,0.0159 -0.02787,0.0886 -0.1397,0.1711 -0.100189,0.0751 -0.249414,0.18521 -0.280811,0.32773 -0.150284,0.0138 -0.905934,0.084 -1.117953,0.0593 -0.07902,-0.01 -0.126647,-0.0614 -0.187325,-0.12736 -0.105481,-0.11183 -0.23495,-0.25153 -0.582436,-0.23495 -0.465314,0.0236 -1.999545,0.26141 -2.392186,0.32279 -0.02505,-0.036 -0.115006,-0.16227 -0.1905,-0.17921 -0.03422,-0.007 -0.0702,10e-4 -0.09948,0.0233 -0.07091,0.0512 -0.100895,0.13264 -0.109714,0.20849 v 0 l -0.248003,0.0716 -0.117828,0.0286 0.131939,0.0169 z m 9.130947,-0.38629 c 7.14e-4,0.22543 0.0067,0.49636 0.0081,0.54504 -0.03598,0.0755 -0.334433,0.70556 -0.365125,0.84879 v 0 l -0.0042,0.0198 0.01588,0.0131 v 0 c 0.0046,0.004 0.01976,0.0155 0.04233,0.0324 v 0 l -0.0042,-10e-4 -0.08396,0.28963 v 0.002 l -0.0018,0.003 -0.0056,0.055 -0.04163,0.03 -0.0088,0.007 -0.0032,0.0102 -0.02258,0.0928 v 0 c -0.04374,0.043 -0.283986,0.29704 -0.262466,0.56832 -0.04198,0.0469 -0.183797,0.2212 -0.196145,0.3556 v 0 l -0.224014,0.20638 v 0 c -0.05327,0.0469 -0.386291,0.34396 -0.866773,0.77329 0.0049,-0.0233 0.01164,-0.0476 0.01658,-0.0716 0.04128,-0.17109 0.0762,-0.31961 0.09455,-0.36159 0.01446,-0.0356 0.02716,-0.0702 0.0381,-0.10372 0.02716,-0.079 0.05327,-0.15205 0.122766,-0.25964 0.05927,-0.0917 0.164041,-0.36901 0.27446,-0.66146 0.08326,-0.22084 0.169686,-0.45085 0.240595,-0.61031 0.145697,-0.32773 1.059391,-1.54728 1.237191,-1.78294 z" />
    <path
       inkscape:connector-curvature="0"
       id="path4548"
       style="fill:#f2d63a;fill-opacity:1;fill-rule:evenodd;stroke:none;stroke-width:0.35277775"
       d="m 90.851498,120.66621 c -1.221668,-6.9282 -7.828491,-11.55382 -14.756341,-10.33215 -3.265663,0.57573 -6.019094,2.34844 -7.890227,4.78719 1.6002,-3.91231 5.109281,-6.94478 9.580385,-7.73289 6.92785,-1.22167 13.534319,3.40431 14.75599,10.33216 0.645583,3.66253 -0.343607,7.2337 -2.442282,9.96879 0.880182,-2.15054 1.185686,-4.56601 0.752475,-7.0231" />
    <path
       inkscape:connector-curvature="0"
       id="path4544"
       style="fill:#ffffff;fill-opacity:1;fill-rule:evenodd;stroke:none;stroke-width:0.543957"
       d="m 134.39645,130.11588 c 0,-0.32562 -0.14622,-0.47761 -0.14622,-0.47761 -0.14621,-0.15206 -0.2923,-0.15206 -0.43844,-0.15206 v 0 h -1.33619 v -12.65924 h 1.33619 v 0 c 0.1462,0 0.29229,0 0.43844,-0.15206 0,0 0.14622,-0.15204 0.14622,-0.47761 v 0 -1.23813 0 c 0,-0.304 -0.14622,-0.45598 -0.14622,-0.45598 -0.14621,-0.15206 -0.2923,-0.15206 -0.43844,-0.15206 v 0 h -6.09681 v 0 c -0.14622,0 -0.29231,0 -0.43847,0.15206 0,0 -0.14621,0.15205 -0.14621,0.45598 v 0 1.23813 0 c 0,0.32563 0.14621,0.47761 0.14621,0.47761 0.1462,0.15206 0.29231,0.15206 0.43847,0.15206 v 0 h 1.33617 v 12.65924 h -1.33617 v 0 c -0.14622,0 -0.29231,0 -0.43847,0.15206 0,0 -0.14621,0.15205 -0.14621,0.47761 v 0 1.23758 0 c 0,0.30398 0.14621,0.45598 0.14621,0.45598 0.1462,0.15205 0.29231,0.15205 0.43847,0.15205 v 0 h 6.09681 v 0 c 0.1462,0 0.29229,0 0.43844,-0.15205 0,0 0.14622,-0.15206 0.14622,-0.45598 v 0 z m 3.68743,-15.76456 c -0.29232,0 -0.43847,0 -0.43847,0.15205 -0.14622,0 -0.14622,0.15206 -0.14622,0.45598 v 0 16.39417 0 c 0,0.30399 0,0.45597 0.14622,0.45597 0,0.15206 0.14621,0.15206 0.43847,0.15206 v 0 h 3.71674 v 0 c 2.23389,0.15206 4.00907,-0.45597 5.34526,-1.69355 1.19001,-1.23759 1.92077,-3.5613 1.92077,-7.27403 0,-3.38767 -0.58462,-5.71084 -1.77463,-6.94842 -1.33618,-1.23813 -3.11135,-1.6941 -5.34525,-1.6941 v 0 z m 2.81903,14.83097 v -12.05127 h 0.89771 v 0 c 1.33619,0 2.23389,0.30398 2.81851,1.23758 0.60542,0.78159 0.89772,2.32316 0.89772,4.62525 0,2.47514 -0.2923,4.01671 -0.89772,4.95087 -0.58462,0.93358 -1.48232,1.23757 -2.81851,1.23757 v 0 z m 11.81328,-14.83097 c -0.2923,0 -0.43845,0 -0.43845,0.15205 -0.14621,0 -0.14621,0.15206 -0.14621,0.45598 v 0 16.39417 0 c 0,0.30399 0,0.45597 0.14621,0.45597 0,0.15206 0.14621,0.15206 0.43845,0.15206 v 0 h 3.71677 v 0 c 2.23389,0.15206 4.00906,-0.45597 5.34525,-1.69355 1.19001,-1.23759 1.92078,-3.5613 1.92078,-7.27403 0,-3.38767 -0.58462,-5.71084 -1.77463,-6.94842 -1.33619,-1.23813 -3.11137,-1.6941 -5.34526,-1.6941 v 0 z m 2.81905,14.83097 v -12.05127 h 0.89772 v 0 c 1.33618,0 2.23389,0.30398 2.8185,1.23758 0.60541,0.78159 0.89772,2.32316 0.89772,4.62525 0,2.47514 -0.29231,4.01671 -0.89772,4.95087 -0.58461,0.93358 -1.48232,1.23757 -2.8185,1.23757 v 0 z m 17.44923,-4.32126 h -3.27775 l 1.04386,-4.32127 v 0 c 0.14621,-0.62959 0.29231,-1.08558 0.29231,-1.86718 0.1462,-0.60797 0.29229,-1.23758 0.29229,-1.69355 v 0 0 c 0.16698,0.45597 0.16698,1.08558 0.31313,1.84554 0.14621,0.62961 0.14621,1.23758 0.2923,1.71519 v 0 z m -3.71622,2.30153 h 4.30084 l 1.04441,4.1909 v 0 c 0.1462,0.30398 0.1462,0.45598 0.1462,0.45598 0.14622,0.15205 0.14622,0.15205 0.29231,0.15205 v 0 h 2.81851 v 0 c 0,0 0.16695,0 0.31311,0 0.14621,-0.15205 0.14621,-0.15205 0.14621,-0.30398 0,0 0,0 0,-0.15206 0,-0.15206 -0.14621,-0.15206 -0.14621,-0.15206 v 0 l -4.76063,-16.5461 v 0 c -0.14621,-0.15205 -0.14621,-0.30397 -0.14621,-0.30397 -0.14622,-0.15206 -0.29231,-0.15206 -0.43845,-0.15206 v 0 h -2.52622 v 0 c -0.1462,0 -0.31309,0 -0.45926,0.15206 0,0 0,0.15204 -0.1462,0.30397 v 0 l -4.73983,16.37254 v 0 c 0,0.17363 -0.16697,0.17363 -0.16697,0.32562 0,0 0,0.15206 0,0.15206 0,0.15206 0.16697,0.30398 0.45926,0.30398 v 0 h 2.52621 v 0 c 0.14621,0 0.2923,0 0.43845,-0.15205 0,0 0,-0.15206 0.14622,-0.45598 v 0 z m 22.05037,-3.8431 c 0,-0.32561 0,-0.47761 -0.1462,-0.47761 0,-0.15206 -0.14621,-0.15206 -0.45926,-0.15206 v 0 h -4.15521 v 0 c -0.29231,0 -0.43846,0 -0.43846,0.15206 -0.1462,0 -0.1462,0.15206 -0.1462,0.47761 v 0 1.54157 0 c 0,0.30399 0,0.45597 0.1462,0.45597 0,0.15206 0.14621,0.15206 0.43846,0.15206 v 0 h 1.79543 v 3.71328 0 c -0.16695,0.15206 -0.31311,0.15206 -0.60541,0.304 -0.29232,0.15205 -0.75158,0.15205 -1.19002,0.15205 -1.33619,0 -2.23389,-0.60798 -2.67236,-1.84556 -0.43846,-1.08613 -0.58461,-2.6277 -0.58461,-4.79886 0,-1.99811 0.14621,-3.53967 0.73077,-4.62524 0.45926,-1.0856 1.33616,-1.69356 2.5262,-1.69356 0.8977,0 1.62848,0.15205 2.23389,0.60796 0.58515,0.30399 0.89824,0.47761 1.04441,0.47761 0.1462,0 0.1462,0 0.29231,-0.17362 v 0 l 0.73075,-1.69356 v 0 c 0.16696,-0.30398 0.16696,-0.30398 0.16696,-0.45597 0,-0.15206 -0.6054,-0.63017 -1.50313,-0.93416 -0.87745,-0.30397 -1.92132,-0.60796 -3.11135,-0.60796 -2.23389,0 -3.86291,0.75996 -5.05295,2.30208 -1.04385,1.71519 -1.62845,4.01672 -1.62845,7.12204 0,3.08313 0.5846,5.40684 1.62845,6.79641 1.19004,1.54157 2.81906,2.30152 5.05295,2.30152 1.04386,0 2.08774,-0.15205 3.11135,-0.60795 1.19002,-0.30399 1.64928,-0.78161 1.79543,-1.38959 v 0 z m 12.30671,-7.42603 c 0,-0.30398 0.1462,-0.30398 0.1462,-0.45597 -0.1462,-0.15206 -0.5846,-0.63017 -1.48285,-0.93414 -1.04388,-0.30399 -2.06694,-0.60798 -3.25696,-0.60798 -1.62849,0 -2.81904,0.45598 -3.86292,1.23813 -1.04386,0.75996 -1.62848,2.14955 -1.62848,4.01672 0,1.06396 0.14622,1.84554 0.58462,2.45408 0.2923,0.62961 0.89771,1.0856 1.48232,1.56321 1.33617,0.75995 2.52673,1.38957 3.5706,1.84554 1.04388,0.45597 1.62849,1.23758 1.62849,2.32372 0,0.75996 -0.14621,1.38956 -0.58461,1.69355 -0.45927,0.45598 -1.04388,0.60798 -1.79543,0.60798 -1.02308,0 -2.06749,-0.15206 -2.81905,-0.60798 -0.73076,-0.30399 -1.19002,-0.47762 -1.19002,-0.47762 -0.14621,0 -0.2923,0 -0.2923,0.17363 v 0 l -0.58462,1.69357 v 0 c 0,0.15204 0,0.30397 -0.16695,0.45597 0.16695,0.30399 0.6054,0.62961 1.64928,0.9336 1.04388,0.30398 2.2131,0.60795 3.54981,0.60795 1.64928,0 2.98544,-0.45597 3.86237,-1.54155 0.89825,-0.91196 1.50367,-2.14954 1.50367,-3.86528 0,-0.91195 -0.16697,-1.84554 -0.60542,-2.62714 -0.29285,-0.60799 -0.89825,-1.21594 -1.48286,-1.69355 -1.19002,-0.75998 -2.38005,-1.39013 -3.42391,-1.84612 -1.02308,-0.6296 -1.77518,-1.23758 -1.77518,-2.17117 0,-0.75997 0.2923,-1.23758 0.7521,-1.54156 0.43846,-0.30399 1.02308,-0.45598 1.62849,-0.45598 1.04386,0 1.77463,0.15206 2.38003,0.60798 0.73077,0.30397 1.02308,0.47761 1.19003,0.47761 0,0 0.14622,0 0.29231,-0.17364 v 0 z m 9.76127,8.9676 h -3.27776 l 1.04388,-4.32127 v 0 c 0.14622,-0.62959 0.29231,-1.08558 0.29231,-1.86718 0.1462,-0.60797 0.29229,-1.23758 0.29229,-1.69355 v 0 0 c 0.16696,0.45597 0.16696,1.08558 0.31313,1.84554 0.1462,0.62961 0.1462,1.23758 0.29229,1.71519 v 0 z m -3.71622,2.30153 h 4.30084 l 1.04441,4.1909 v 0 c 0.14621,0.30398 0.14621,0.45598 0.14621,0.45598 0.14622,0.15205 0.14622,0.15205 0.29231,0.15205 v 0 h 2.81851 v 0 c 0,0 0.16696,0 0.31311,0 0.1462,-0.15205 0.1462,-0.15205 0.1462,-0.30398 0,0 0,0 0,-0.15206 0,-0.15206 -0.1462,-0.15206 -0.1462,-0.15206 v 0 l -4.76064,-16.5461 v 0 c -0.1462,-0.15205 -0.1462,-0.30397 -0.1462,-0.30397 -0.14622,-0.15206 -0.29231,-0.15206 -0.43847,-0.15206 v 0 h -2.5262 v 0 c -0.14621,0 -0.3131,0 -0.45926,0.15206 0,0 0,0.15204 -0.1462,0.30397 v 0 l -4.73982,16.37254 v 0 c 0,0.17363 -0.16697,0.17363 -0.16697,0.32562 0,0 0,0.15206 0,0.15206 0,0.15206 0.16697,0.30398 0.45926,0.30398 v 0 h 2.52621 v 0 c 0.14621,0 0.2923,0 0.43846,-0.15205 0,0 0,-0.15206 0.14621,-0.45598 v 0 z m 4.90625,-17.28395 c 0,-0.93358 -0.3131,-1.54212 -0.75155,-2.01973 -0.43848,-0.45597 -1.19003,-0.75997 -1.9208,-0.75997 -0.75156,0 -1.33617,0.304 -1.79544,0.75997 -0.43846,0.47761 -0.73075,1.08615 -0.73075,2.01973 0,0.75997 0.29229,1.38958 0.73075,1.84557 0.45927,0.45597 1.04388,0.78159 1.79544,0.78159 0.73077,0 1.48232,-0.32562 1.9208,-0.78159 0.43845,-0.45599 0.75155,-1.0856 0.75155,-1.84557 z m -2.67235,1.0856 c -0.31311,0 -0.45925,-0.17363 -0.75156,-0.32563 -0.14621,-0.15204 -0.2923,-0.45597 -0.2923,-0.75997 0,-0.47761 0.14621,-0.78158 0.2923,-0.93358 0.29231,-0.15206 0.43845,-0.30399 0.75156,-0.30399 0.43846,0 0.58462,0.15206 0.87692,0.30399 0.14622,0.30398 0.29231,0.45597 0.29231,0.93358 0,0.304 -0.14622,0.60799 -0.29231,0.75997 -0.2923,0.15206 -0.43846,0.32563 -0.87692,0.32563 z m 18.25895,4.92922 c 0,-0.30398 0.14621,-0.30398 0.14621,-0.45597 -0.14621,-0.15206 -0.58461,-0.63017 -1.48286,-0.93414 -1.04387,-0.30399 -2.06693,-0.60798 -3.25696,-0.60798 -1.62848,0 -2.81904,0.45598 -3.86292,1.23813 -1.04386,0.75996 -1.62848,2.14955 -1.62848,4.01672 0,1.06396 0.14622,1.84554 0.58462,2.45408 0.29231,0.62961 0.89772,1.0856 1.48232,1.56321 1.33617,0.75995 2.52673,1.38957 3.57061,1.84554 1.04388,0.45597 1.62848,1.23758 1.62848,2.32372 0,0.75996 -0.14621,1.38956 -0.5846,1.69355 -0.45928,0.45598 -1.04388,0.60798 -1.79544,0.60798 -1.02307,0 -2.06748,-0.15206 -2.81905,-0.60798 -0.73075,-0.30399 -1.19001,-0.47762 -1.19001,-0.47762 -0.14622,0 -0.29231,0 -0.29231,0.17363 v 0 l -0.58462,1.69357 v 0 c 0,0.15204 0,0.30397 -0.16695,0.45597 0.16695,0.30399 0.60541,0.62961 1.64929,0.9336 1.04387,0.30398 2.2131,0.60795 3.5498,0.60795 1.64929,0 2.98546,-0.45597 3.86237,-1.54155 0.89825,-0.91196 1.50367,-2.14954 1.50367,-3.86528 0,-0.91195 -0.16696,-1.84554 -0.60542,-2.62714 -0.29284,-0.60799 -0.89825,-1.21594 -1.48285,-1.69355 -1.19003,-0.75998 -2.38005,-1.39013 -3.42392,-1.84612 -1.02307,-0.6296 -1.77517,-1.23758 -1.77517,-2.17117 0,-0.75997 0.29229,-1.23758 0.7521,-1.54156 0.43846,-0.30399 1.02307,-0.45598 1.62848,-0.45598 1.04386,0 1.77463,0.15206 2.38004,0.60798 0.73078,0.30397 1.02307,0.47761 1.19004,0.47761 0,0 0.1462,0 0.29229,-0.17364 v 0 z m 12.05172,13.89683 c 0,-0.30399 0,-0.45599 -0.14621,-0.45599 0,-0.15206 -0.14621,-0.15206 -0.2923,-0.15206 v 0 h -5.34524 v -5.10285 h 4.15468 v 0 c 0.29231,0 0.45926,0 0.45926,-0.15206 0,0 0.14622,-0.15205 0.14622,-0.45597 v 0 -1.54157 0 c 0,-0.32562 0,-0.47761 -0.14622,-0.47761 0,-0.15252 -0.16695,-0.15252 -0.45926,-0.15252 v 0 h -4.15468 v -4.1687 h 4.7601 v 0 c 0.1462,0 0.29229,0 0.29229,0 0.14667,-0.15206 0.29285,-0.304 0.29285,-0.456 v 0 l 0.43845,-1.71574 v 0 c 0,0 0,-0.15206 0.16697,-0.15206 0,0 0,-0.15204 0,-0.15204 0,-0.15206 -0.16697,-0.15206 -0.16697,-0.30399 -0.1462,0 -0.29229,0 -0.43845,0 v 0 h -8.16428 v 0 c -0.29231,0 -0.45926,0 -0.45926,0.15206 -0.14621,0 -0.14621,0.15204 -0.14621,0.45597 v 0 16.39418 0 c 0,0.30398 0,0.45597 0.14621,0.45597 0,0.15206 0.16695,0.15206 0.45926,0.15206 v 0 h 8.16428 v 0 c 0.14621,0 0.2923,0 0.2923,-0.15206 0.14621,0 0.14621,-0.15206 0.14621,-0.45597 v 0 z m 14.43178,-14.98297 c 0,-0.15205 0,-0.30397 -0.1462,-0.30397 0,-0.15206 -0.14622,-0.15206 -0.43847,-0.15206 v 0 h -1.62849 v 0 c -0.31311,0 -0.45926,0 -0.45926,0.15206 -0.1462,0 -0.1462,0.15204 -0.1462,0.30397 v 0 8.18656 0 c 0,0.32561 0,0.93358 0,1.5632 0,0.75995 0.1462,1.38955 0.1462,1.84555 v 0 h -0.1462 v 0 c -0.14622,-0.62961 -0.29231,-1.23758 -0.58515,-1.84555 -0.14622,-0.62962 -0.45926,-1.23759 -0.89772,-2.01918 v 0 l -4.00853,-7.88257 v 0 c -0.14622,-0.15206 -0.14622,-0.15206 -0.29231,-0.30398 0,0 -0.14621,0 -0.29229,0 v 0 h -1.94215 v 0 c -0.29229,0 -0.43844,0 -0.43844,0.15205 -0.14622,0 -0.14622,0.15206 -0.14622,0.30399 v 0 16.54616 0 c 0,0.30399 0,0.45597 0.14622,0.45597 0,0.15206 0.14621,0.15206 0.43844,0.15206 v 0 h 1.62849 v 0 c 0.31366,0 0.4598,0 0.4598,-0.15206 0.14622,0 0.14622,-0.15205 0.14622,-0.45597 v 0 -9.27157 0 c 0,-0.62961 0,-1.08614 0,-1.71575 0,-0.45598 -0.14622,-0.91196 -0.14622,-1.06395 v 0 h 0.14622 v 0 c 0.14621,0.60797 0.2923,1.06395 0.43844,1.69356 0.29231,0.45653 0.60541,1.08614 0.89773,1.84611 v 0 l 4.59367,8.66359 v 0 c 0,0.15206 0.14621,0.30398 0.14621,0.30398 0.16696,0.15206 0.31311,0.15206 0.45926,0.15206 v 0 h 1.48233 v 0 c 0.29231,0 0.43846,0 0.43846,-0.15206 0.1462,0 0.1462,-0.15205 0.1462,-0.45597 v 0 z m -132.8378,0.32618 c 0,-0.32618 0,-0.47817 0,-0.63015 -0.16696,-0.15206 -0.31311,-0.15206 -0.45927,-0.15206 v 0 h -2.38005 v 0 c -0.14621,0 -0.2923,0 -0.2923,0 -0.14622,0.15206 -0.14622,0.15206 -0.29231,0.30398 v 0 l -2.08827,6.64444 v 0 c -0.29231,0.78214 -0.43846,1.39011 -0.58461,1.86772 -0.14622,0.30399 -0.14622,0.75996 -0.29232,1.21596 v 0 0 c -0.16695,-1.06396 -0.45926,-1.99755 -0.75155,-3.08368 v 0 l -2.08774,-6.64444 v 0 c 0,-0.15205 -0.14622,-0.15205 -0.14622,-0.30398 -0.14621,0 -0.14621,0 -0.43848,0 v 0 h -2.38056 v 0 c -0.14621,0 -0.29231,0 -0.29231,0.15206 -0.14622,0 -0.14622,0.15204 -0.14622,0.30397 v 0 l -0.75156,16.54617 v 0 c 0,0.30398 0,0.45598 0.14621,0.45598 0.14622,0.15205 0.14622,0.15205 0.45926,0.15205 v 0 h 1.77464 v 0 c 0.14621,0 0.29231,0 0.29231,-0.15205 0.14622,0 0.14622,-0.15206 0.14622,-0.45598 v 0 l 0.31363,-8.66359 v 0 c 0,-0.45599 0,-1.0856 0,-1.99811 0,-0.78159 0,-1.54157 0,-2.01918 v 0 0 c 0.1462,0.47761 0.29229,1.23759 0.43846,2.01918 0.1462,0.76052 0.29231,1.54212 0.43845,1.99811 v 0 l 1.48234,4.95085 v 0 c 0.16696,0.15205 0.16696,0.304 0.16696,0.304 0.14621,0.15204 0.2923,0.15204 0.43844,0.15204 v 0 h 1.62849 v 0 c 0.14622,0 0.29231,0 0.45925,-0.15204 0,0 0,-0.15206 0.14622,-0.304 v 0 l 1.48286,-4.95085 v 0 c 0.14622,-0.45599 0.29232,-1.23759 0.43847,-1.99811 0.29229,-0.78159 0.29229,-1.54157 0.43846,-2.01918 v 0 0 c 0,0.47761 0,1.23759 0,2.01918 0.16695,0.91251 0.16695,1.54212 0.16695,2.15009 v 0 l 0.1462,8.51161 v 0 c 0,0.30398 0,0.45598 0.14622,0.45598 0,0.15205 0.1462,0.15205 0.29229,0.15205 v 0 h 2.23392 v 0 c 0.14621,0 0.2923,0 0.2923,-0.15205 0.14622,0 0.14622,-0.15206 0.14622,-0.45598 v 0 z" />
    <path
       inkscape:connector-curvature="0"
       id="path4546"
       style="fill:#ffffff;fill-opacity:1;fill-rule:evenodd;stroke:none;stroke-width:0.543957"
       d="m 122.65699,145.50046 h 0.0437 l 2.88466,4.00007 v 0 c 0,0.0228 0.0437,0.0682 0.10927,0.0911 0.0219,0.0454 0.0656,0.0682 0.0875,0.0682 0.0437,0 0.0656,0 0.10928,-0.0228 0.0219,-0.0454 0.0656,-0.0454 0.13118,-0.0682 v 0 l 1.00546,-0.52254 v 0 c 0.0433,-0.0454 0.065,-0.0454 0.10884,-0.0682 0.0219,-0.0454 0.0656,-0.0911 0.0656,-0.11374 0,-0.0454 0,-0.11374 -0.0437,-0.11374 -0.0219,-0.0228 -0.0219,-0.0682 -0.0656,-0.0682 v 0 l -2.95025,-3.84142 2.68834,-3.614 v 0 c 0.0219,-0.0454 0.0219,-0.0682 0.0656,-0.11374 0,0 0.0219,-0.0676 0.0219,-0.11317 0,-0.0228 -0.0219,-0.0682 -0.0656,-0.0911 -0.0219,-0.0454 -0.0656,-0.0454 -0.0875,-0.0682 v 0 l -0.87423,-0.45488 v 0 c -0.0437,-0.0454 -0.10927,-0.0454 -0.13119,-0.0682 -0.0437,0 -0.0656,-0.0454 -0.10927,-0.0454 -0.0219,0 -0.0656,0.0454 -0.0875,0.0682 -0.0437,0.0454 -0.0875,0.0682 -0.10927,0.11374 v 0 l -2.75344,3.97789 h -0.0437 v -3.65948 0 c 0,-0.11374 -0.0219,-0.18196 -0.0656,-0.22744 -0.0219,-0.0228 -0.0875,-0.0682 -0.19683,-0.0682 v 0 h -1.18041 v 0 c -0.0875,0 -0.1531,0.0454 -0.19684,0.0682 -0.0219,0.0454 -0.065,0.11374 -0.065,0.22744 v 0 8.41009 0 c 0,0.0904 0.0433,0.15865 0.065,0.22688 0.0437,0.0454 0.10928,0.0454 0.19684,0.0454 v 0 h 1.18042 v 0 c 0.10927,0 0.17495,0 0.19682,-0.0454 0.0437,-0.0682 0.0656,-0.13652 0.0656,-0.22688 v 0 z m 12.37711,2.97717 c 0,-0.11374 0,-0.20414 -0.0437,-0.24962 -0.0219,-0.0228 -0.0875,-0.0228 -0.21869,-0.0228 v 0 h -0.67743 v -6.45526 h 0.67743 v 0 c 0.13119,0 0.19682,0 0.21869,-0.0454 0.0437,-0.0228 0.0437,-0.13651 0.0437,-0.2502 v 0 -0.68174 0 c 0,-0.11374 0,-0.22743 -0.0437,-0.25017 -0.0219,-0.0454 -0.0875,-0.0454 -0.21869,-0.0454 v 0 h -3.0596 v 0 c -0.13118,0 -0.19683,0 -0.24058,0.0454 -0.0219,0.0228 -0.0219,0.13652 -0.0219,0.25017 v 0 0.68174 0 c 0,0.11374 0,0.22744 0.0219,0.2502 0.0437,0.0454 0.10927,0.0454 0.24058,0.0454 v 0 h 0.67742 v 6.45526 h -0.67742 v 0 c -0.13118,0 -0.19683,0 -0.24058,0.0228 -0.0219,0.0454 -0.0219,0.13579 -0.0219,0.24962 v 0 0.70506 0 c 0,0.0904 0,0.20413 0.0219,0.22686 0.0437,0.0454 0.10927,0.0454 0.24058,0.0454 v 0 h 3.0596 v 0 c 0.13119,0 0.19682,0 0.21869,-0.0454 0.0437,-0.0228 0.0437,-0.13651 0.0437,-0.22686 v 0 z m 9.74902,-7.1825 c 0.0219,-0.0682 0.0219,-0.11375 0.0656,-0.13652 0,-0.0454 0,-0.0454 0,-0.0904 -0.0437,-0.13652 -0.30564,-0.27292 -0.7649,-0.47761 -0.48061,-0.18196 -1.04921,-0.27293 -1.66102,-0.3184 -0.7649,0 -1.39859,0.20467 -1.94534,0.63682 -0.52433,0.40881 -0.80864,1.1133 -0.83049,2.04524 0,0.52311 0.0875,0.95467 0.30616,1.27307 0.19683,0.27292 0.45872,0.5453 0.80865,0.72724 0.65555,0.38665 1.22415,0.659 1.72663,0.90919 0.50246,0.25017 0.78676,0.61407 0.80864,1.18211 0,0.38608 -0.0875,0.70449 -0.30618,0.90918 -0.1963,0.18194 -0.45874,0.27292 -0.83051,0.27292 -0.54621,-0.0228 -1.00492,-0.0911 -1.39858,-0.27292 -0.415,-0.18195 -0.61182,-0.27292 -0.67742,-0.27292 -0.0437,0 -0.0437,0 -0.0656,0.0228 -0.0437,0 -0.0437,0.0454 -0.0656,0.0682 v 0 l -0.28431,0.88644 v 0 c -0.0219,0.0228 -0.0219,0.0911 -0.0656,0.13652 0,0.0228 0,0.0682 0,0.0682 0.0437,0.13651 0.30618,0.27293 0.80864,0.47706 0.54675,0.18194 1.13669,0.29567 1.81412,0.3184 0.80864,0 1.44285,-0.2729 1.94532,-0.77273 0.503,-0.47761 0.74304,-1.13661 0.78676,-1.97756 0,-0.4998 -0.10927,-0.90919 -0.30564,-1.29582 -0.21869,-0.34059 -0.48112,-0.63626 -0.78731,-0.8637 -0.58994,-0.43156 -1.15801,-0.74998 -1.70474,-0.97686 -0.54621,-0.25018 -0.83052,-0.59133 -0.87426,-1.04565 0,-0.38663 0.13118,-0.68231 0.37178,-0.81821 0.24057,-0.13652 0.50248,-0.20469 0.80864,-0.20469 0.45926,0.0454 0.87425,0.11374 1.2023,0.27294 0.30564,0.18138 0.50247,0.29509 0.56808,0.29509 0.0437,0 0.0656,-0.0454 0.13118,-0.11374 v 0 z m 9.84235,7.00112 c 0,-0.0911 0,-0.15921 -0.0219,-0.2047 -0.0437,-0.0228 -0.13118,-0.0682 -0.24002,-0.0682 v 0 h -2.68836 v -2.54562 h 2.16349 v 0 c 0.0875,0 0.1531,-0.0454 0.19683,-0.0682 0.0219,-0.0454 0.0656,-0.11374 0.0219,-0.20468 v 0 -0.88644 0 c 0.0437,-0.0911 0,-0.15921 -0.0219,-0.20471 -0.0437,-0.0228 -0.10927,-0.0682 -0.19683,-0.0682 v 0 h -2.16349 v -2.13622 h 2.44779 v 0 c 0.0437,0 0.10927,0 0.15309,-0.0228 0.0656,-0.0454 0.0875,-0.0682 0.13119,-0.18194 v 0 l 0.21815,-0.86371 v 0 c 0.0437,-0.0682 0.0437,-0.11374 0.0437,-0.11374 0,-0.0228 0,-0.0682 0,-0.0911 0.0437,-0.0454 0,-0.0911 -0.0437,-0.11374 -0.0656,-0.0454 -0.13118,-0.0454 -0.26189,-0.0454 v 0 h -4.13121 v 0 c -0.0875,0 -0.15257,0.0454 -0.1963,0.0682 -0.0219,0.0454 -0.0656,0.11374 -0.0656,0.22743 v 0 8.4101 0 c 0,0.0904 0.0437,0.15865 0.0656,0.20414 0.0437,0.0228 0.10884,0.0682 0.1963,0.0682 v 0 h 4.13122 v 0 c 0.13061,0 0.19629,-0.0454 0.24004,-0.0682 0.0219,-0.0454 0.0219,-0.11374 0.0219,-0.20414 v 0 z m 11.08308,-7.52367 c 0,-0.11374 -0.0437,-0.18194 -0.0656,-0.22744 -0.0437,-0.0228 -0.10928,-0.0682 -0.21871,-0.0682 v 0 h -0.89613 v 0 c -0.10927,0 -0.17495,0.0454 -0.1968,0.0682 -0.0437,0.0454 -0.0656,0.11374 -0.0656,0.22744 v 0 4.13655 0 c 0,0.22742 0,0.50035 0.0219,0.84096 0,0.36388 0,0.63681 0,0.88644 v 0 h -0.0219 v 0 c -0.065,-0.29512 -0.17443,-0.59078 -0.28378,-0.90921 -0.13118,-0.31784 -0.28431,-0.659 -0.45926,-1.02288 v 0 l -2.076,-4.04557 v 0 c -0.0437,-0.0682 -0.0656,-0.11374 -0.10928,-0.13652 -0.0219,-0.0454 -0.0875,-0.0454 -0.19683,-0.0454 v 0 h -1.00544 v 0 c -0.10928,0 -0.17497,0.0454 -0.19684,0.0682 -0.0432,0.0454 -0.065,0.11374 -0.065,0.22744 v 0 8.41011 0 c 0,0.0904 0.0219,0.15864 0.065,0.22686 0.0219,0.0454 0.0875,0.0454 0.19684,0.0454 v 0 h 0.8961 v 0 c 0.10927,0 0.17495,0 0.2187,-0.0454 0.0219,-0.0682 0.0656,-0.13652 0.0656,-0.22686 v 0 -4.72788 0 c 0,-0.29567 0,-0.59132 -0.0437,-0.8637 0,-0.27292 0,-0.45486 0,-0.56859 v 0 h 0.0437 v 0 c 0.0219,0.29567 0.13119,0.56859 0.21869,0.84097 0.15256,0.29565 0.28377,0.59132 0.48061,0.95465 v 0 l 2.31658,4.45496 v 0 c 0.0219,0.0682 0.0656,0.11374 0.0875,0.13652 0.0437,0.0454 0.10927,0.0454 0.21869,0.0454 v 0 h 0.78675 v 0 c 0.10928,0 0.21871,0 0.24059,-0.0454 0.0437,-0.0682 0.0437,-0.13652 0.0437,-0.22687 v 0 z m 8.33656,1.27253 h 1.55167 v 0 c 0.0656,0 0.13119,0 0.17497,-0.0228 0.0656,0 0.0875,-0.0676 0.13061,-0.18139 v 0 l 0.26242,-1.04565 v 0 c 0,-0.0228 0.0437,-0.0682 0.0437,-0.0682 0,-0.0228 0,-0.0682 0,-0.0911 0,-0.0454 -0.0437,-0.11374 -0.0656,-0.11374 -0.0437,-0.0454 -0.1531,-0.0454 -0.24056,-0.0454 v 0 h -5.20176 v 0 c -0.10883,0 -0.1306,0 -0.17443,0.0454 -0.0219,0.0228 -0.0219,0.11374 -0.0219,0.18194 v 0 1.13663 0 c 0,0.0682 0,0.13652 0.0219,0.1814 0.0437,0.0228 0.0656,0.0228 0.17443,0.0228 v 0 h 1.63969 v 7.13759 0 c 0,0.0904 0.0437,0.15864 0.0656,0.22687 0.0433,0.0454 0.10884,0.0454 0.19629,0.0454 v 0 h 1.18043 v 0 c 0.10928,0 0.17495,0 0.19684,-0.0454 0.0437,-0.0682 0.0656,-0.13651 0.0656,-0.22687 v 0 z m 11.26601,6.25114 c 0,-0.0911 0,-0.15921 -0.0219,-0.2047 -0.0437,-0.0228 -0.13118,-0.0682 -0.24004,-0.0682 v 0 h -2.68836 v -2.54562 h 2.1635 v 0 c 0.0875,0 0.15309,-0.0454 0.19683,-0.0682 0.0219,-0.0454 0.0656,-0.11374 0.0219,-0.20468 v 0 -0.88644 0 c 0.0437,-0.0911 0,-0.15921 -0.0219,-0.20471 -0.0437,-0.0228 -0.10927,-0.0682 -0.19683,-0.0682 v 0 h -2.1635 v -2.13622 h 2.44781 v 0 c 0.0437,0 0.10927,0 0.15308,-0.0228 0.0656,-0.0454 0.0875,-0.0682 0.13118,-0.18194 v 0 l 0.21815,-0.86371 v 0 c 0.0437,-0.0682 0.0437,-0.11374 0.0437,-0.11374 0,-0.0228 0,-0.0682 0,-0.0911 0.0437,-0.0454 0,-0.0911 -0.0437,-0.11374 -0.0656,-0.0454 -0.13118,-0.0454 -0.26189,-0.0454 v 0 h -4.13121 v 0 c -0.0875,0 -0.15256,0.0454 -0.1963,0.0682 -0.0219,0.0454 -0.0656,0.11374 -0.0656,0.22743 v 0 8.4101 0 c 0,0.0904 0.0437,0.15865 0.0656,0.20414 0.0437,0.0228 0.10884,0.0682 0.1963,0.0682 v 0 h 4.13121 v 0 c 0.13061,0 0.19629,-0.0454 0.24004,-0.0682 0.0219,-0.0454 0.0219,-0.11374 0.0219,-0.20414 v 0 z m 6.88679,-3.90967 v -2.54561 h 0.45873 v 0 c 0.34991,-0.0228 0.67741,0.0454 0.93985,0.18139 0.28431,0.11374 0.43739,0.45488 0.43739,1.00017 0,0.61407 -0.15308,0.97741 -0.43739,1.15935 -0.28431,0.18195 -0.65554,0.2502 -1.07108,0.2047 v 0 z m 0,1.36351 h 0.58994 l 1.72663,3.50026 v 0 c 0.0656,0.13651 0.13118,0.25018 0.15309,0.31841 0.0875,0.0682 0.10927,0.091 0.1531,0.091 0,0 0.0219,0 0.0656,0 0.0219,0 0.065,-0.0228 0.0869,-0.0228 v 0 l 1.04919,-0.3184 v 0 c 0.0656,0 0.13119,-0.0454 0.19684,-0.0682 0.0437,0 0.0656,-0.045 0.0656,-0.0676 0,-0.0454 0,-0.11374 -0.0219,-0.13652 -0.0437,-0.0454 -0.0437,-0.0682 -0.0656,-0.11374 v 0 l -1.87972,-3.50029 v 0 c 0.26242,-0.0911 0.5686,-0.29565 0.89611,-0.65956 0.32805,-0.34059 0.503,-0.93191 0.54673,-1.77287 -0.0437,-0.79548 -0.21868,-1.36351 -0.54673,-1.75016 -0.37125,-0.34058 -0.7649,-0.54527 -1.20176,-0.659 -0.48113,-0.0682 -0.87425,-0.11374 -1.22416,-0.11374 v 0 h -2.0328 v 0 c -0.10927,0 -0.17442,0 -0.1963,0.0454 -0.0437,0.0228 -0.0656,0.13652 -0.0656,0.25017 v 0 8.41011 0 c 0,0.0904 0.0219,0.15865 0.0656,0.22688 0.0219,0.0454 0.0869,0.0454 0.1963,0.0454 v 0 h 1.18042 v 0 c 0.0875,0 0.1531,0 0.19684,-0.0454 0.0219,-0.0682 0.0656,-0.13652 0.0656,-0.22688 v 0 z m -76.60265,-4.45496 c 0.0219,-0.0682 0.0219,-0.11375 0.0656,-0.13652 0,-0.0454 0,-0.0454 0,-0.0904 -0.0437,-0.13652 -0.30563,-0.27292 -0.76489,-0.47761 -0.48061,-0.18196 -1.04922,-0.27293 -1.66103,-0.3184 -0.7649,0 -1.39859,0.20467 -1.94533,0.63682 -0.52434,0.40881 -0.80864,1.1133 -0.83051,2.04524 0,0.52311 0.0875,0.95467 0.30617,1.27307 0.19685,0.27292 0.45874,0.5453 0.80865,0.72724 0.65556,0.38665 1.22416,0.659 1.72663,0.90919 0.50246,0.25017 0.78677,0.61407 0.80864,1.18211 0,0.38608 -0.0875,0.70449 -0.30618,0.90918 -0.19629,0.18194 -0.45873,0.27292 -0.83051,0.27292 -0.5462,-0.0228 -1.00493,-0.0911 -1.39858,-0.27292 -0.415,-0.18195 -0.6118,-0.27292 -0.67741,-0.27292 -0.0437,0 -0.0437,0 -0.0656,0.0228 -0.0437,0 -0.0437,0.0454 -0.0656,0.0682 v 0 l -0.2843,0.88644 v 0 c -0.0219,0.0228 -0.0219,0.0911 -0.0656,0.13652 0,0.0228 0,0.0682 0,0.0682 0.0437,0.13651 0.30616,0.27293 0.80864,0.47706 0.54673,0.18194 1.13667,0.29567 1.8141,0.3184 0.80864,0 1.44286,-0.2729 1.94533,-0.77273 0.50299,-0.47761 0.74303,-1.13661 0.78675,-1.97756 0,-0.4998 -0.10927,-0.90919 -0.30563,-1.29582 -0.2187,-0.34059 -0.48112,-0.63626 -0.7873,-0.8637 -0.58994,-0.43156 -1.15802,-0.74998 -1.70477,-0.97686 -0.5462,-0.25018 -0.8305,-0.59133 -0.87425,-1.04565 0,-0.38663 0.13119,-0.68231 0.3718,-0.81821 0.24056,-0.13652 0.50245,-0.20469 0.80864,-0.20469 0.45926,0.0454 0.87425,0.11374 1.20229,0.27294 0.30563,0.18138 0.50247,0.29509 0.56807,0.29509 0.0437,0 0.0656,-0.0454 0.13119,-0.11374 v 0 z" />
  </g>
</svg>
