<?xml version="1.0" encoding="UTF-8" standalone="no"?>
<!-- Created with Inkscape (http://www.inkscape.org/) -->

<svg
   xmlns:dc="http://purl.org/dc/elements/1.1/"
   xmlns:cc="http://creativecommons.org/ns#"
   xmlns:rdf="http://www.w3.org/1999/02/22-rdf-syntax-ns#"
   xmlns:svg="http://www.w3.org/2000/svg"
   xmlns="http://www.w3.org/2000/svg"
   xmlns:sodipodi="http://sodipodi.sourceforge.net/DTD/sodipodi-0.dtd"
   xmlns:inkscape="http://www.inkscape.org/namespaces/inkscape"
   width="93.237717mm"
   height="42.459839mm"
   viewBox="0 0 93.237717 42.459839"
   version="1.1"
   id="svg4575"
   inkscape:version="0.92.5 (2060ec1f9f, 2020-04-08)"
   sodipodi:docname="middagsasen-logo-only.svg">
  <defs
     id="defs4569" />
  <sodipodi:namedview
     id="base"
     pagecolor="#ffffff"
     bordercolor="#666666"
     borderopacity="1.0"
     inkscape:pageopacity="0.0"
     inkscape:pageshadow="2"
     inkscape:zoom="0.49497475"
     inkscape:cx="-438.99607"
     inkscape:cy="-280.69491"
     inkscape:document-units="mm"
     inkscape:current-layer="layer1"
     showgrid="false"
     inkscape:window-width="1920"
     inkscape:window-height="1009"
     inkscape:window-x="-8"
     inkscape:window-y="-8"
     inkscape:window-maximized="1" />
  <metadata
     id="metadata4572">
    <rdf:RDF>
      <cc:Work
         rdf:about="">
        <dc:format>image/svg+xml</dc:format>
        <dc:type
           rdf:resource="http://purl.org/dc/dcmitype/StillImage" />
        <dc:title />
      </cc:Work>
    </rdf:RDF>
  </metadata>
  <g
     inkscape:label="Layer 1"
     inkscape:groupmode="layer"
     id="layer1"
     transform="translate(-64.50614,-37.64508)">
    <path
       inkscape:connector-curvature="0"
       id="path4540"
       style="fill:#2a3276;fill-opacity:1;fill-rule:evenodd;stroke:none;stroke-width:0.35277775"
       d="m 125.86721,54.304533 c -2.72238,2.932288 -2.8067,3.117849 -5.75839,6.019094 -3.03742,2.986969 -3.24732,3.824464 -5.55166,4.139141 -1.93852,0.264231 -2.47721,-1.031169 -6.10306,-3.87985 -3.16265,-2.484966 -3.56799,-3.000022 -6.88481,-4.981574 v 0 L 99.90665,54.62556 v 0 c -4.920546,-2.849033 -4.492625,-2.753077 -9.323917,1.036109 -2.91465,2.285647 -4.534605,3.407127 -6.182077,4.490155 -3.991328,0.116064 -9.007828,1.039636 -12.375798,2.788003 -2.576336,1.337029 -6.140803,3.034947 -7.1247,6.103056 -2.767189,8.633176 9.780059,9.966676 14.5923,9.008533 2.858912,-0.569032 8.184797,-2.280708 12.127794,-4.125032 2.456744,-1.14935 4.333875,-2.171348 7.300383,-2.018593 1.788935,0.780343 -0.373239,3.636433 -0.674864,5.134327 -0.331259,1.64959 1.631598,2.823985 3.168999,2.99579 4.23369,0.47272 7.99324,-1.632657 11.15554,-3.888317 5.50334,-3.924655 13.69731,-5.83424 20.89256,-5.451475 3.48156,0.18556 6.88693,0.386643 10.43693,-0.176742 3.42935,-0.544338 10.1466,-0.410633 13.84406,0.150284 -3.88832,-1.0795 -10.33568,-1.798109 -14.40921,-1.140532 -3.99803,0.645583 -8.41022,0.207785 -12.45341,-0.0067 -4.50567,-0.238479 -8.21901,-0.854781 -12.3892,0.756002 -3.22509,1.24601 -6.45407,3.015192 -9.50736,4.57835 -1.12642,0.57644 -3.42195,1.745192 -4.64079,0.5461 -1.28094,-1.259769 0.30198,-1.425223 -0.15981,-2.644775 -0.27905,-0.7366 -1.03964,-1.394883 -1.64959,-1.884892 -3.557056,-2.861027 -7.866944,-1.25095 -11.794418,0.01199 -3.751439,1.206148 -22.959836,7.24535 -21.361047,-1.596319 0.475544,-2.632426 3.067403,-4.732512 5.110691,-5.791199 2.08527,-1.0795 5.93972,-2.464153 8.605662,-2.497314 -0.564092,0.366536 -1.165578,0.759178 -1.850672,1.215672 -5.678311,3.785306 -11.672006,7.36106 -11.672006,7.36106 0,0 6.658328,-2.219322 13.1445,-5.67831 6.415969,-3.422297 6.449836,-3.639608 9.779352,-5.678311 3.518252,-2.155119 6.11505,-1.266119 7.928328,-0.230011 1.81257,1.036109 4.66196,4.144434 6.21594,5.69842 1.5547,1.553985 4.27885,4.332817 6.86894,4.332817 2.59045,0 4.77908,-0.367242 7.48312,-3.07199 2.61832,-2.617963 1.35749,-1.210733 4.20617,-4.836936 2.84939,-3.625849 3.51331,-4.864099 4.54343,-5.181952 0.92498,-0.286103 2.29199,1.291872 3.76378,3.079044 1.518,1.843264 1.18463,1.425222 3.89044,3.680531 3.14183,2.617963 3.56587,2.814109 6.41491,4.626679 2.84903,1.812925 4.64396,2.325513 7.29509,2.856442 1.04704,0.209198 6.41703,0.20179 5.44548,0.104423 -2.58975,-0.259291 -4.42384,-0.719315 -7.27252,-2.014715 -2.84868,-1.295045 -2.25107,-0.829733 -5.46805,-3.364441 -3.45581,-2.723091 -4.10105,-3.575402 -6.31931,-6.245577 -1.99496,-2.401006 -2.40842,-2.482497 -4.81718,-5.026378 -1.87607,-1.981905 -3.08116,-1.879247 -4.96147,-0.189441 v 0 l -1.84644,1.865136" />
    <path
       inkscape:connector-curvature="0"
       id="path4542"
       style="fill:#1c1e21;fill-opacity:1;fill-rule:evenodd;stroke:none;stroke-width:0.35277775"
       d="m 69.473922,52.322274 c 0.01799,0.06385 0.105128,0.2159 0.219428,0.223309 0.08467,0.0049 0.154164,-0.07973 0.173214,-0.270581 0.361597,-0.02928 1.804105,-0.14358 2.269419,-0.166158 0.316795,-0.01623 0.430389,0.10548 0.530578,0.212725 0.06421,0.0695 0.124178,0.135466 0.228953,0.148519 0.220839,0.02575 1.171222,-0.04657 1.359252,-0.06138 0.136878,0.159455 0.260351,0.218017 0.286809,0.228953 0.06209,0.05186 0.162983,0.05186 0.199672,0.04974 0.12947,0.09243 0.280106,0.03528 0.337961,0.006 0.0088,0.01023 0.01693,0.02046 0.02364,0.02928 0.02822,0.03563 0.04974,0.06279 0.08396,0.06068 0.04833,-0.0035 0.07832,-0.05927 0.191558,-0.269875 0.176389,-0.328437 0.04198,-0.536928 0.01411,-0.575734 -0.0095,-0.03598 -0.06209,-0.238478 -0.07091,-0.488244 -0.0067,-0.190147 0.141111,-0.620889 0.271286,-1.001536 0.05786,-0.168981 0.112537,-0.327731 0.149931,-0.4572 0.01093,-0.03351 0.02434,-0.07832 0.04022,-0.130881 v 0 0 c 0.16263,-0.536928 0.594077,-1.920522 0.669572,-2.161116 0.100894,0.07303 0.162983,0.117122 0.165453,0.118533 v 0 l 0.0042,0.0028 0.0042,0.0014 v 0 c 0.0046,0.0014 0.350661,0.115006 0.551039,-0.04586 0.06809,0.04727 0.231775,0.166511 0.301978,0.2413 0.0829,0.08643 0.249061,0.405342 0.289983,0.517172 -0.05715,0.164748 -0.739775,2.180872 -0.918986,2.963686 -0.170391,0.744009 -0.219428,0.92322 -0.226836,0.947561 -0.02328,0.04092 -0.167569,0.299156 -0.159455,0.4191 0.0028,0.05186 -0.187325,0.323498 -0.314678,0.502003 -0.1778,0.253647 -0.286809,0.412397 -0.300567,0.483658 -0.01623,0.07161 -0.01093,0.12947 -0.0067,0.174625 0.0053,0.05115 0.0067,0.0755 -0.01305,0.09737 -0.0088,0.01023 -0.02575,0.02646 -0.04692,0.04551 -0.105128,0.09631 -0.301273,0.276578 -0.329848,0.492831 -0.02787,0.213783 0.0028,0.409222 0.01517,0.472722 -0.05468,0.04163 -0.218722,0.194028 -0.26035,0.512939 -0.04092,0.3175 0.01164,0.50412 0.02999,0.555978 -0.03281,0.06597 -0.199672,0.385586 -0.44838,0.58808 -0.258939,0.210961 -0.286104,0.538692 -0.28822,0.623359 -0.07161,0.09313 -0.04904,0.219427 -0.0381,0.262819 v 0 l -0.0088,0.01305 v 0 c -1.393825,1.251655 -2.768247,2.490258 -2.856795,2.595739 -0.170391,0.204964 -0.376061,0.343958 -0.735189,0.499533 -0.101247,0.0441 -0.153105,0.104069 -0.1524,0.180269 0.0014,0.183445 0.323498,0.376062 0.44697,0.436034 0.191205,0.09066 0.409222,0.192264 0.594783,0 0.09878,-0.103364 2.609145,-2.472267 4.579056,-4.330347 -0.610658,0.804686 -1.062919,1.406877 -1.104547,1.482019 -0.129469,0.232833 -0.306564,0.410633 -0.630766,0.62865 -0.09137,0.06209 -0.130176,0.131586 -0.11536,0.207081 0.03422,0.180622 0.383118,0.312914 0.515057,0.348897 0.202494,0.05398 0.432153,0.117828 0.580672,-0.107597 0.128764,-0.197556 5.546372,-7.66445 5.602111,-7.739592 v 0 l 0.01164,-0.01764 -0.01164,-0.01905 v 0 c -0.131233,-0.209903 -0.268464,-0.331259 -0.410633,-0.361245 -0.126647,-0.02646 -0.207081,0.0314 -0.209197,0.03351 v 0 l -0.0042,0.0028 -0.0025,0.0046 -0.487186,0.65405 v 0 c 0.04692,-0.406752 0.100189,-0.938036 0.100189,-1.107016 0.174272,-0.07161 1.380066,-0.62477 1.128888,-1.937103 -0.108302,-0.570794 -0.252236,-0.829733 -0.339372,-0.983544 -0.02787,-0.05115 -0.05045,-0.09137 -0.06279,-0.125589 -0.01834,-0.05433 -0.02364,-0.110773 -0.02716,-0.165453 -0.0081,-0.08784 -0.01764,-0.178506 -0.08043,-0.253295 -0.01482,-0.103716 -0.138995,-0.98178 -0.332317,-1.278114 v 0 l 0.01764,-0.02187 v 0 c 0.127353,-0.0063 1.050572,-0.05539 1.425928,-0.125941 v 0 l 0.478366,0.672394 v 0 c -0.02858,0.149931 -0.133703,0.733072 -0.05256,0.841375 v 0 l -0.0035,-0.0042 v 0 c 0.01729,0.03563 0.178506,0.348192 0.319617,0.359833 0.118533,0.0088 0.446969,0.006 0.557389,-0.05327 0.1016,-0.05503 0.406753,-0.320675 0.420158,-0.331611 v 0 l 0.0056,-0.0056 0.0014,-0.0039 v 0 c 0.239889,-0.04233 2.142067,-0.372886 2.39395,-0.406753 0.132997,-0.01834 0.292453,-0.144639 0.477661,-0.291042 0.203553,-0.161572 0.433917,-0.346075 0.673806,-0.415572 0.414866,-0.12065 1.240719,-0.372533 1.386416,-0.416983 0.118533,0.250825 0.362303,0.395111 0.570089,0.324908 0.181328,-0.06068 0.284339,-0.286103 0.252942,-0.527755 0.01976,-0.0056 0.0314,-0.01023 0.0321,-0.01023 v 0 l 0.280459,-0.103717 -0.0081,-0.04022 -0.348192,0.0049 v 0 c -0.05992,-0.154192 -0.167517,-0.280134 -0.296987,-0.345398 -0.09807,-0.04868 -0.200025,-0.0575 -0.2921,-0.02681 -0.173919,0.05856 -0.269875,0.250119 -0.255411,0.468136 -0.14993,0.0448 -0.984602,0.292806 -1.398058,0.41275 -0.246592,0.07232 -0.480483,0.258233 -0.686858,0.422628 -0.180623,0.14358 -0.335845,0.267053 -0.458611,0.28328 -0.251884,0.03351 -2.086681,0.334434 -2.320925,0.372181 -0.0575,-0.05256 -0.189442,-0.254353 -0.210609,-0.334081 -0.01305,-0.04692 -0.05785,-0.08643 -0.109008,-0.13088 -0.05786,-0.0508 -0.123472,-0.107597 -0.140406,-0.1778 -0.06138,-0.254 -0.272697,-1.096786 -0.40393,-1.303161 -0.0956,-0.147109 -0.299156,-0.185209 -0.583142,-0.239184 -0.121355,-0.02328 -0.26035,-0.04974 -0.406753,-0.08855 -0.261761,-0.0702 -0.465313,-0.0374 -0.627591,-0.0095 -0.136878,0.02187 -0.245181,0.04022 -0.35172,-0.0028 -0.243064,-0.09595 -0.898525,-0.1083 -0.995891,-0.110417 -0.117123,-0.09737 -0.290336,-0.08643 -0.340078,-0.08149 -0.341842,-0.257528 -0.653345,-0.142522 -0.726017,-0.110419 -0.155575,-0.07303 -0.477661,0.01093 -0.496005,0.01623 v 0 l -0.519289,0.119956 v 0 c -0.05115,-0.0088 -0.352778,-0.05503 -0.573617,0.08855 v 0 l 0.01623,0.02258 v 0 c -0.01023,-0.01235 -0.01905,-0.02399 -0.02716,-0.03493 -0.129476,-0.174977 -0.823743,-0.750005 -1.626312,-0.155927 -0.246592,0.182033 -0.436034,0.534811 -0.483659,0.896055 -0.02928,0.222603 -0.01764,0.548217 0.198967,0.839964 0.0448,0.06068 0.09596,0.121356 0.151342,0.183092 v 0 l -0.417689,2.145594 v 0 c -0.02258,0.04092 -0.182034,0.357717 -0.188031,0.638881 -0.02681,0.07514 -0.353131,1.037872 -0.200378,2.070453 -0.0042,0.01587 -0.02787,0.08855 -0.1397,0.171097 -0.100189,0.07514 -0.249414,0.185208 -0.280811,0.32773 -0.150283,0.01376 -0.905933,0.08396 -1.117953,0.05927 -0.07902,-0.0095 -0.126647,-0.06138 -0.187325,-0.127353 -0.10548,-0.11183 -0.23495,-0.25153 -0.582436,-0.23495 -0.465314,0.02364 -1.999544,0.261409 -2.392186,0.322792 -0.02505,-0.03598 -0.115005,-0.162278 -0.1905,-0.179211 -0.03422,-0.0067 -0.0702,0.0014 -0.09948,0.02328 -0.07091,0.05115 -0.100894,0.132645 -0.109714,0.208492 v 0 l -0.248003,0.07161 -0.117827,0.02858 0.131939,0.01693 z m 9.130948,-0.386291 c 7.14e-4,0.225425 0.0067,0.496358 0.0081,0.545041 -0.03598,0.0755 -0.334433,0.705556 -0.365125,0.848784 v 0 l -0.0042,0.01976 0.01588,0.01305 v 0 c 0.0046,0.0039 0.01976,0.01552 0.04233,0.03245 v 0 l -0.0042,-0.0014 -0.08396,0.289631 v 0.0021 l -0.0018,0.0028 -0.0056,0.05503 -0.04163,0.02999 -0.0088,0.0074 -0.0032,0.01023 -0.02258,0.09278 v 0 c -0.04374,0.04304 -0.283986,0.297039 -0.262466,0.568325 -0.04198,0.04692 -0.183797,0.221192 -0.196145,0.3556 v 0 l -0.224014,0.206375 v 0 c -0.05327,0.04692 -0.386291,0.343959 -0.866774,0.773289 0.0049,-0.02328 0.01164,-0.04763 0.01658,-0.07161 0.04128,-0.171097 0.0762,-0.319616 0.09455,-0.361597 0.01446,-0.03563 0.02716,-0.0702 0.0381,-0.103717 0.02716,-0.07902 0.05327,-0.152047 0.122766,-0.259644 0.05927,-0.09172 0.164042,-0.369006 0.274461,-0.661458 0.08326,-0.220839 0.169686,-0.45085 0.240595,-0.610306 0.145697,-0.32773 1.059391,-1.547283 1.237191,-1.782939 z" />
    <path
       inkscape:connector-curvature="0"
       id="path4548"
       style="fill:#f2d63a;fill-opacity:1;fill-rule:evenodd;stroke:none;stroke-width:0.35277775"
       d="m 143.01221,51.118597 c -1.22167,-6.928203 -7.82849,-11.553825 -14.75634,-10.332156 -3.26566,0.575733 -6.01909,2.348442 -7.89023,4.787194 1.6002,-3.912305 5.10928,-6.944783 9.58039,-7.732888 6.92785,-1.22167 13.53432,3.404305 14.75599,10.332155 0.64558,3.662539 -0.34361,7.233708 -2.44228,9.968794 0.88018,-2.150533 1.18568,-4.566002 0.75247,-7.023099" />
  </g>
</svg>
