<?xml version="1.0" encoding="UTF-8" standalone="no"?>
<!-- Created with Inkscape (http://www.inkscape.org/) -->

<svg
   xmlns:dc="http://purl.org/dc/elements/1.1/"
   xmlns:cc="http://creativecommons.org/ns#"
   xmlns:rdf="http://www.w3.org/1999/02/22-rdf-syntax-ns#"
   xmlns:svg="http://www.w3.org/2000/svg"
   xmlns="http://www.w3.org/2000/svg"
   xmlns:sodipodi="http://sodipodi.sourceforge.net/DTD/sodipodi-0.dtd"
   xmlns:inkscape="http://www.inkscape.org/namespaces/inkscape"
   version="1.1"
   id="svg4518"
   xml:space="preserve"
   width="365.33334"
   height="258.66666"
   viewBox="0 0 365.33334 258.66666"
   sodipodi:docname="middagsasen-logo.svg"
   inkscape:version="0.92.5 (2060ec1f9f, 2020-04-08)"><metadata
     id="metadata4524"><rdf:RDF><cc:Work
         rdf:about=""><dc:format>image/svg+xml</dc:format><dc:type
           rdf:resource="http://purl.org/dc/dcmitype/StillImage" /><dc:title></dc:title></cc:Work></rdf:RDF></metadata><defs
     id="defs4522"><clipPath
       clipPathUnits="userSpaceOnUse"
       id="clipPath4536"><path
         d="M 0,0 H 274 V 194 H 0 Z"
         id="path4534"
         inkscape:connector-curvature="0" /></clipPath></defs><sodipodi:namedview
     pagecolor="#ffffff"
     bordercolor="#666666"
     borderopacity="1"
     objecttolerance="10"
     gridtolerance="10"
     guidetolerance="10"
     inkscape:pageopacity="0"
     inkscape:pageshadow="2"
     inkscape:window-width="1920"
     inkscape:window-height="1009"
     id="namedview4520"
     showgrid="false"
     inkscape:zoom="2.82709"
     inkscape:cx="182.66667"
     inkscape:cy="129.33333"
     inkscape:window-x="-8"
     inkscape:window-y="-8"
     inkscape:window-maximized="1"
     inkscape:current-layer="g4526" /><g
     id="g4526"
     inkscape:groupmode="layer"
     inkscape:label="MIDDAGSÅSEN rene farger"
     transform="matrix(1.3333333,0,0,-1.3333333,0,258.66667)"><g
       id="g4530"><g
         clip-path="url(#clipPath4536)"
         id="g4532"><path
           inkscape:connector-curvature="0"
           id="path4538"
           style="fill:#ffffff;fill-opacity:1;fill-rule:nonzero;stroke:none"
           d="M -100,-100 H 274 V 194 H -100 Z" /></g></g><path
       inkscape:connector-curvature="0"
       id="path4540"
       style="fill:#2a3276;fill-opacity:1;fill-rule:evenodd;stroke:none"
       d="m 178.907,146.87 c -7.717,-8.312 -7.956,-8.838 -16.323,-17.062 -8.61,-8.467 -9.205,-10.841 -15.737,-11.733 -5.495,-0.749 -7.022,2.923 -17.3,10.998 -8.965,7.044 -10.114,8.504 -19.516,14.121 v 0 l -4.713,2.766 v 0 C 91.37,154.036 92.583,153.764 78.888,143.023 70.626,136.544 66.034,133.365 61.364,130.295 50.05,129.966 35.83,127.348 26.283,122.392 18.98,118.602 8.876,113.789 6.087,105.092 -1.757,80.62 33.81,76.84 47.451,79.556 c 8.104,1.613 23.201,6.465 34.378,11.693 6.964,3.258 12.285,6.155 20.694,5.722 5.071,-2.212 -1.058,-10.308 -1.913,-14.554 -0.939,-4.676 4.625,-8.005 8.983,-8.492 12.001,-1.34 22.658,4.628 31.622,11.022 15.6,11.125 38.827,16.538 59.223,15.453 9.869,-0.526 19.522,-1.096 29.585,0.501 9.721,1.543 28.762,1.164 39.243,-0.426 -11.022,3.06 -29.298,5.097 -40.845,3.233 -11.333,-1.83 -23.84,-0.589 -35.301,0.019 -12.772,0.676 -23.298,2.423 -35.119,-2.143 -9.142,-3.532 -18.295,-8.547 -26.95,-12.978 -3.193,-1.634 -9.7,-4.947 -13.155,-1.548 -3.631,3.571 0.856,4.04 -0.453,7.497 -0.791,2.088 -2.947,3.954 -4.676,5.343 -10.083,8.11 -22.3,3.546 -33.433,-0.034 -10.634,-3.419 -65.083,-20.538 -60.551,4.525 1.348,7.462 8.695,13.415 14.487,16.416 5.911,3.06 16.837,6.985 24.394,7.079 -1.599,-1.039 -3.304,-2.152 -5.246,-3.446 -16.096,-10.73 -33.086,-20.866 -33.086,-20.866 0,0 18.874,6.291 37.26,16.096 18.187,9.701 18.283,10.317 27.721,16.096 9.973,6.109 17.334,3.589 22.474,0.652 5.138,-2.937 13.215,-11.748 17.62,-16.153 4.407,-4.405 12.129,-12.282 19.471,-12.282 7.343,0 13.547,1.041 21.212,8.708 7.422,7.421 3.848,3.432 11.923,13.711 8.077,10.278 9.959,13.788 12.879,14.689 2.622,0.811 6.497,-3.662 10.669,-8.728 4.303,-5.225 3.358,-4.04 11.028,-10.433 8.906,-7.421 10.108,-7.977 18.184,-13.115 8.076,-5.139 13.164,-6.592 20.679,-8.097 2.968,-0.593 18.19,-0.572 15.436,-0.296 -7.341,0.735 -12.54,2.039 -20.615,5.711 -8.075,3.671 -6.381,2.352 -15.5,9.537 -9.796,7.719 -11.625,10.135 -17.913,17.704 -5.655,6.806 -6.827,7.037 -13.655,14.248 -5.318,5.618 -8.734,5.327 -14.064,0.537 v 0 l -5.234,-5.287" /><path
       inkscape:connector-curvature="0"
       id="path4542"
       style="fill:#1c1e21;fill-opacity:1;fill-rule:evenodd;stroke:none"
       d="m 19.052,152.489 c 0.051,-0.181 0.298,-0.612 0.622,-0.633 0.24,-0.014 0.437,0.226 0.491,0.767 1.025,0.083 5.114,0.407 6.433,0.471 0.898,0.046 1.22,-0.299 1.504,-0.603 0.182,-0.197 0.352,-0.384 0.649,-0.421 0.626,-0.073 3.32,0.132 3.853,0.174 0.388,-0.452 0.738,-0.618 0.813,-0.649 0.176,-0.147 0.462,-0.147 0.566,-0.141 0.367,-0.262 0.794,-0.1 0.958,-0.017 0.025,-0.029 0.048,-0.058 0.067,-0.083 0.08,-0.101 0.141,-0.178 0.238,-0.172 0.137,0.01 0.222,0.168 0.543,0.765 0.5,0.931 0.119,1.522 0.04,1.632 -0.027,0.102 -0.176,0.676 -0.201,1.384 -0.019,0.539 0.4,1.76 0.769,2.839 0.164,0.479 0.319,0.929 0.425,1.296 0.031,0.095 0.069,0.222 0.114,0.371 v 0 0 c 0.461,1.522 1.684,5.444 1.898,6.126 0.286,-0.207 0.462,-0.332 0.469,-0.336 v 0 l 0.012,-0.008 0.012,-0.004 v 0 c 0.013,-0.004 0.994,-0.326 1.562,0.13 0.193,-0.134 0.657,-0.472 0.856,-0.684 0.235,-0.245 0.706,-1.149 0.822,-1.466 -0.162,-0.467 -2.097,-6.182 -2.605,-8.401 -0.483,-2.109 -0.622,-2.617 -0.643,-2.686 -0.066,-0.116 -0.475,-0.848 -0.452,-1.188 0.008,-0.147 -0.531,-0.917 -0.892,-1.423 -0.504,-0.719 -0.813,-1.169 -0.852,-1.371 -0.046,-0.203 -0.031,-0.367 -0.019,-0.495 0.015,-0.145 0.019,-0.214 -0.037,-0.276 -0.025,-0.029 -0.073,-0.075 -0.133,-0.129 -0.298,-0.273 -0.854,-0.784 -0.935,-1.397 -0.079,-0.606 0.008,-1.16 0.043,-1.34 -0.155,-0.118 -0.62,-0.55 -0.738,-1.454 -0.116,-0.9 0.033,-1.429 0.085,-1.576 -0.093,-0.187 -0.566,-1.093 -1.271,-1.667 -0.734,-0.598 -0.811,-1.527 -0.817,-1.767 -0.203,-0.264 -0.139,-0.622 -0.108,-0.745 v 0 l -0.025,-0.037 v 0 c -3.951,-3.548 -7.847,-7.059 -8.098,-7.358 -0.483,-0.581 -1.066,-0.975 -2.084,-1.416 -0.287,-0.125 -0.434,-0.295 -0.432,-0.511 0.004,-0.52 0.917,-1.066 1.267,-1.236 0.542,-0.257 1.16,-0.545 1.686,0 0.28,0.293 7.396,7.008 12.98,12.275 -1.731,-2.281 -3.013,-3.988 -3.131,-4.201 -0.367,-0.66 -0.869,-1.164 -1.788,-1.782 -0.259,-0.176 -0.369,-0.373 -0.327,-0.587 0.097,-0.512 1.086,-0.887 1.46,-0.989 0.574,-0.153 1.225,-0.334 1.646,0.305 0.365,0.56 15.722,21.726 15.88,21.939 v 0 l 0.033,0.05 -0.033,0.054 v 0 c -0.372,0.595 -0.761,0.939 -1.164,1.024 -0.359,0.075 -0.587,-0.089 -0.593,-0.095 v 0 l -0.012,-0.008 -0.007,-0.013 -1.381,-1.854 v 0 c 0.133,1.153 0.284,2.659 0.284,3.138 0.494,0.203 3.912,1.771 3.2,5.491 -0.307,1.618 -0.715,2.352 -0.962,2.788 -0.079,0.145 -0.143,0.259 -0.178,0.356 -0.052,0.154 -0.067,0.314 -0.077,0.469 -0.023,0.249 -0.05,0.506 -0.228,0.718 -0.042,0.294 -0.394,2.783 -0.942,3.623 v 0 l 0.05,0.062 v 0 c 0.361,0.018 2.978,0.157 4.042,0.357 v 0 l 1.356,-1.906 v 0 c -0.081,-0.425 -0.379,-2.078 -0.149,-2.385 v 0 l -0.01,0.012 v 0 c 0.049,-0.101 0.506,-0.987 0.906,-1.02 0.336,-0.025 1.267,-0.017 1.58,0.151 0.288,0.156 1.153,0.909 1.191,0.94 v 0 l 0.016,0.016 0.004,0.011 v 0 c 0.68,0.12 6.072,1.057 6.786,1.153 0.377,0.052 0.829,0.41 1.354,0.825 0.577,0.458 1.23,0.981 1.91,1.178 1.176,0.342 3.517,1.056 3.93,1.182 0.336,-0.711 1.027,-1.12 1.616,-0.921 0.514,0.172 0.806,0.811 0.717,1.496 0.056,0.016 0.089,0.029 0.091,0.029 v 0 l 0.795,0.294 -0.023,0.114 -0.987,-0.014 v 0 c -0.17,0.437 -0.475,0.794 -0.842,0.979 -0.278,0.138 -0.567,0.163 -0.828,0.076 -0.493,-0.166 -0.765,-0.709 -0.724,-1.327 -0.425,-0.127 -2.791,-0.83 -3.963,-1.17 -0.699,-0.205 -1.362,-0.732 -1.947,-1.198 -0.512,-0.407 -0.952,-0.757 -1.3,-0.803 -0.714,-0.095 -5.915,-0.948 -6.579,-1.055 -0.163,0.149 -0.537,0.721 -0.597,0.947 -0.037,0.133 -0.164,0.245 -0.309,0.371 -0.164,0.144 -0.35,0.305 -0.398,0.504 -0.174,0.72 -0.773,3.109 -1.145,3.694 -0.271,0.417 -0.848,0.525 -1.653,0.678 -0.344,0.066 -0.738,0.141 -1.153,0.251 -0.742,0.199 -1.319,0.106 -1.779,0.027 -0.388,-0.062 -0.695,-0.114 -0.997,0.008 -0.689,0.272 -2.547,0.307 -2.823,0.313 -0.332,0.276 -0.823,0.245 -0.964,0.231 -0.969,0.73 -1.852,0.404 -2.058,0.313 -0.441,0.207 -1.354,-0.031 -1.406,-0.046 v 0 l -1.472,-0.34 v 0 c -0.145,0.025 -1,0.156 -1.626,-0.251 v 0 l 0.046,-0.064 v 0 c -0.029,0.035 -0.054,0.068 -0.077,0.099 -0.367,0.496 -2.335,2.126 -4.61,0.442 -0.699,-0.516 -1.236,-1.516 -1.371,-2.54 -0.083,-0.631 -0.05,-1.554 0.564,-2.381 0.127,-0.172 0.272,-0.344 0.429,-0.519 v 0 l -1.184,-6.082 v 0 c -0.064,-0.116 -0.516,-1.014 -0.533,-1.811 -0.076,-0.213 -1.001,-2.942 -0.568,-5.869 -0.012,-0.045 -0.079,-0.251 -0.396,-0.485 -0.284,-0.213 -0.707,-0.525 -0.796,-0.929 -0.426,-0.039 -2.568,-0.238 -3.169,-0.168 -0.224,0.027 -0.359,0.174 -0.531,0.361 -0.299,0.317 -0.666,0.713 -1.651,0.666 -1.319,-0.067 -5.668,-0.741 -6.781,-0.915 -0.071,0.102 -0.326,0.46 -0.54,0.508 -0.097,0.019 -0.199,-0.004 -0.282,-0.066 -0.201,-0.145 -0.286,-0.376 -0.311,-0.591 v 0 l -0.703,-0.203 -0.334,-0.081 0.374,-0.048 z m 25.883,1.095 c 0.002,-0.639 0.019,-1.407 0.023,-1.545 -0.102,-0.214 -0.948,-2 -1.035,-2.406 v 0 l -0.012,-0.056 0.045,-0.037 v 0 c 0.013,-0.011 0.056,-0.044 0.12,-0.092 v 0 l -0.012,0.004 -0.238,-0.821 v -0.006 l -0.005,-0.008 -0.016,-0.156 -0.118,-0.085 -0.025,-0.021 -0.009,-0.029 -0.064,-0.263 v 0 c -0.124,-0.122 -0.805,-0.842 -0.744,-1.611 -0.119,-0.133 -0.521,-0.627 -0.556,-1.008 v 0 l -0.635,-0.585 v 0 c -0.151,-0.133 -1.095,-0.975 -2.457,-2.192 0.014,0.066 0.033,0.135 0.047,0.203 0.117,0.485 0.216,0.906 0.268,1.025 0.041,0.101 0.077,0.199 0.108,0.294 0.077,0.224 0.151,0.431 0.348,0.736 0.168,0.26 0.465,1.046 0.778,1.875 0.236,0.626 0.481,1.278 0.682,1.73 0.413,0.929 3.003,4.386 3.507,5.054 z" /><path
       inkscape:connector-curvature="0"
       id="path4544"
       style="fill:#000000;fill-opacity:1;fill-rule:evenodd;stroke:none"
       d="m 44.94,35.232 c 0,0.587 -0.274,0.861 -0.274,0.861 -0.274,0.274 -0.548,0.274 -0.822,0.274 v 0 h -2.505 v 22.821 h 2.505 v 0 c 0.274,0 0.548,0 0.822,0.274 0,0 0.274,0.274 0.274,0.861 v 0 2.232 0 c 0,0.548 -0.274,0.822 -0.274,0.822 -0.274,0.274 -0.548,0.274 -0.822,0.274 v 0 h -11.43 v 0 c -0.274,0 -0.548,0 -0.822,-0.274 0,0 -0.274,-0.274 -0.274,-0.822 v 0 -2.232 0 c 0,-0.587 0.274,-0.861 0.274,-0.861 0.274,-0.274 0.548,-0.274 0.822,-0.274 v 0 h 2.505 V 36.367 h -2.505 v 0 c -0.274,0 -0.548,0 -0.822,-0.274 0,0 -0.274,-0.274 -0.274,-0.861 v 0 -2.231 0 c 0,-0.548 0.274,-0.822 0.274,-0.822 0.274,-0.274 0.548,-0.274 0.822,-0.274 v 0 h 11.43 v 0 c 0.274,0 0.548,0 0.822,0.274 0,0 0.274,0.274 0.274,0.822 v 0 z m 6.913,28.419 c -0.548,0 -0.822,0 -0.822,-0.274 -0.274,0 -0.274,-0.274 -0.274,-0.822 v 0 -29.554 0 c 0,-0.548 0,-0.822 0.274,-0.822 0,-0.274 0.274,-0.274 0.822,-0.274 v 0 h 6.968 v 0 c 4.188,-0.274 7.516,0.822 10.021,3.053 2.231,2.231 3.601,6.42 3.601,13.113 0,6.107 -1.096,10.295 -3.327,12.526 -2.505,2.232 -5.833,3.054 -10.021,3.054 v 0 z M 57.138,36.915 V 58.64 h 1.683 v 0 c 2.505,0 4.188,-0.548 5.284,-2.231 1.135,-1.409 1.683,-4.188 1.683,-8.338 0,-4.462 -0.548,-7.241 -1.683,-8.925 -1.096,-1.683 -2.779,-2.231 -5.284,-2.231 v 0 z m 22.147,26.736 c -0.548,0 -0.822,0 -0.822,-0.274 -0.274,0 -0.274,-0.274 -0.274,-0.822 v 0 -29.554 0 c 0,-0.548 0,-0.822 0.274,-0.822 0,-0.274 0.274,-0.274 0.822,-0.274 v 0 h 6.968 v 0 c 4.188,-0.274 7.516,0.822 10.021,3.053 2.231,2.231 3.601,6.42 3.601,13.113 0,6.107 -1.096,10.295 -3.327,12.526 -2.505,2.232 -5.833,3.054 -10.021,3.054 v 0 z M 84.57,36.915 V 58.64 h 1.683 v 0 c 2.505,0 4.188,-0.548 5.284,-2.231 1.135,-1.409 1.683,-4.188 1.683,-8.338 0,-4.462 -0.548,-7.241 -1.683,-8.925 -1.096,-1.683 -2.779,-2.231 -5.284,-2.231 v 0 z m 32.713,7.79 h -6.145 l 1.957,7.79 v 0 c 0.274,1.135 0.548,1.957 0.548,3.366 0.274,1.096 0.548,2.231 0.548,3.053 v 0 0 c 0.313,-0.822 0.313,-1.957 0.587,-3.327 0.274,-1.135 0.274,-2.231 0.548,-3.092 v 0 z m -6.967,-4.149 h 8.063 l 1.958,-7.555 v 0 c 0.274,-0.548 0.274,-0.822 0.274,-0.822 0.274,-0.274 0.274,-0.274 0.548,-0.274 v 0 h 5.284 v 0 c 0,0 0.313,0 0.587,0 0.274,0.274 0.274,0.274 0.274,0.548 0,0 0,0 0,0.274 0,0.274 -0.274,0.274 -0.274,0.274 v 0 l -8.925,29.828 v 0 c -0.274,0.274 -0.274,0.548 -0.274,0.548 -0.274,0.274 -0.548,0.274 -0.822,0.274 v 0 h -4.736 v 0 c -0.274,0 -0.587,0 -0.861,-0.274 0,0 0,-0.274 -0.274,-0.548 v 0 l -8.886,-29.515 v 0 c 0,-0.313 -0.313,-0.313 -0.313,-0.587 0,0 0,-0.274 0,-0.274 0,-0.274 0.313,-0.548 0.861,-0.548 v 0 h 4.736 v 0 c 0.274,0 0.548,0 0.822,0.274 0,0 0,0.274 0.274,0.822 v 0 z m 41.339,6.928 c 0,0.587 0,0.861 -0.274,0.861 0,0.274 -0.274,0.274 -0.861,0.274 v 0 h -7.79 v 0 c -0.548,0 -0.822,0 -0.822,-0.274 -0.274,0 -0.274,-0.274 -0.274,-0.861 v 0 -2.779 0 c 0,-0.548 0,-0.822 0.274,-0.822 0,-0.274 0.274,-0.274 0.822,-0.274 v 0 h 3.366 v -6.694 0 c -0.313,-0.274 -0.587,-0.274 -1.135,-0.548 -0.548,-0.274 -1.409,-0.274 -2.231,-0.274 -2.505,0 -4.188,1.096 -5.01,3.327 -0.822,1.958 -1.096,4.737 -1.096,8.651 0,3.602 0.274,6.381 1.37,8.338 0.861,1.957 2.505,3.053 4.736,3.053 1.683,0 3.053,-0.274 4.188,-1.096 1.097,-0.548 1.684,-0.861 1.958,-0.861 0.274,0 0.274,0 0.548,0.313 v 0 l 1.37,3.053 v 0 c 0.313,0.548 0.313,0.548 0.313,0.822 0,0.274 -1.135,1.136 -2.818,1.684 -1.645,0.548 -3.602,1.096 -5.833,1.096 -4.188,0 -7.242,-1.37 -9.473,-4.15 -1.957,-3.092 -3.053,-7.241 -3.053,-12.839 0,-5.558 1.096,-9.747 3.053,-12.252 2.231,-2.779 5.285,-4.149 9.473,-4.149 1.957,0 3.914,0.274 5.833,1.096 2.231,0.548 3.092,1.409 3.366,2.505 v 0 z m 23.072,13.387 c 0,0.548 0.274,0.548 0.274,0.822 -0.274,0.274 -1.096,1.136 -2.78,1.684 -1.957,0.548 -3.875,1.096 -6.106,1.096 -3.053,0 -5.285,-0.822 -7.242,-2.232 -1.957,-1.37 -3.053,-3.875 -3.053,-7.241 0,-1.918 0.274,-3.327 1.096,-4.424 0.548,-1.135 1.683,-1.957 2.779,-2.818 2.505,-1.37 4.737,-2.505 6.694,-3.327 1.957,-0.822 3.053,-2.231 3.053,-4.189 0,-1.37 -0.274,-2.505 -1.096,-3.053 -0.861,-0.822 -1.957,-1.096 -3.366,-1.096 -1.918,0 -3.876,0.274 -5.285,1.096 -1.37,0.548 -2.231,0.861 -2.231,0.861 -0.274,0 -0.548,0 -0.548,-0.313 v 0 l -1.096,-3.053 v 0 c 0,-0.274 0,-0.548 -0.313,-0.822 0.313,-0.548 1.135,-1.135 3.092,-1.683 1.957,-0.548 4.149,-1.096 6.655,-1.096 3.092,0 5.597,0.822 7.241,2.779 1.684,1.644 2.819,3.875 2.819,6.968 0,1.644 -0.313,3.327 -1.135,4.736 -0.549,1.096 -1.684,2.192 -2.78,3.053 -2.231,1.37 -4.462,2.506 -6.419,3.328 -1.918,1.135 -3.328,2.231 -3.328,3.914 0,1.37 0.548,2.231 1.41,2.779 0.822,0.548 1.918,0.822 3.053,0.822 1.957,0 3.327,-0.274 4.462,-1.096 1.37,-0.548 1.918,-0.861 2.231,-0.861 0,0 0.274,0 0.548,0.313 v 0 z m 18.3,-16.166 h -6.145 l 1.957,7.79 v 0 c 0.274,1.135 0.548,1.957 0.548,3.366 0.274,1.096 0.548,2.231 0.548,3.053 v 0 0 c 0.313,-0.822 0.313,-1.957 0.587,-3.327 0.274,-1.135 0.274,-2.231 0.548,-3.092 v 0 z m -6.967,-4.149 h 8.063 l 1.958,-7.555 v 0 c 0.274,-0.548 0.274,-0.822 0.274,-0.822 0.274,-0.274 0.274,-0.274 0.548,-0.274 v 0 h 5.284 v 0 c 0,0 0.313,0 0.587,0 0.274,0.274 0.274,0.274 0.274,0.548 0,0 0,0 0,0.274 0,0.274 -0.274,0.274 -0.274,0.274 v 0 l -8.925,29.828 v 0 c -0.274,0.274 -0.274,0.548 -0.274,0.548 -0.274,0.274 -0.548,0.274 -0.822,0.274 v 0 h -4.736 v 0 c -0.274,0 -0.587,0 -0.861,-0.274 0,0 0,-0.274 -0.274,-0.548 v 0 l -8.886,-29.515 v 0 c 0,-0.313 -0.313,-0.313 -0.313,-0.587 0,0 0,-0.274 0,-0.274 0,-0.274 0.313,-0.548 0.861,-0.548 v 0 h 4.736 v 0 c 0.274,0 0.548,0 0.822,0.274 0,0 0,0.274 0.274,0.822 v 0 z m 9.198,31.158 c 0,1.683 -0.587,2.78 -1.409,3.641 -0.822,0.822 -2.231,1.37 -3.601,1.37 -1.409,0 -2.505,-0.548 -3.366,-1.37 -0.822,-0.861 -1.37,-1.958 -1.37,-3.641 0,-1.37 0.548,-2.505 1.37,-3.327 0.861,-0.822 1.957,-1.409 3.366,-1.409 1.37,0 2.779,0.587 3.601,1.409 0.822,0.822 1.409,1.957 1.409,3.327 z m -5.01,-1.957 c -0.587,0 -0.861,0.313 -1.409,0.587 -0.274,0.274 -0.548,0.822 -0.548,1.37 0,0.861 0.274,1.409 0.548,1.683 0.548,0.274 0.822,0.548 1.409,0.548 0.822,0 1.096,-0.274 1.644,-0.548 0.274,-0.548 0.548,-0.822 0.548,-1.683 0,-0.548 -0.274,-1.096 -0.548,-1.37 -0.548,-0.274 -0.822,-0.587 -1.644,-0.587 z m 34.231,-8.886 c 0,0.548 0.274,0.548 0.274,0.822 -0.274,0.274 -1.096,1.136 -2.78,1.684 -1.957,0.548 -3.875,1.096 -6.106,1.096 -3.053,0 -5.285,-0.822 -7.242,-2.232 -1.957,-1.37 -3.053,-3.875 -3.053,-7.241 0,-1.918 0.274,-3.327 1.096,-4.424 0.548,-1.135 1.683,-1.957 2.779,-2.818 2.505,-1.37 4.737,-2.505 6.694,-3.327 1.957,-0.822 3.053,-2.231 3.053,-4.189 0,-1.37 -0.274,-2.505 -1.096,-3.053 -0.861,-0.822 -1.957,-1.096 -3.366,-1.096 -1.918,0 -3.876,0.274 -5.285,1.096 -1.37,0.548 -2.231,0.861 -2.231,0.861 -0.274,0 -0.548,0 -0.548,-0.313 v 0 l -1.096,-3.053 v 0 c 0,-0.274 0,-0.548 -0.313,-0.822 0.313,-0.548 1.135,-1.135 3.092,-1.683 1.957,-0.548 4.149,-1.096 6.655,-1.096 3.092,0 5.597,0.822 7.241,2.779 1.684,1.644 2.819,3.875 2.819,6.968 0,1.644 -0.313,3.327 -1.135,4.736 -0.549,1.096 -1.684,2.192 -2.78,3.053 -2.231,1.37 -4.462,2.506 -6.419,3.328 -1.918,1.135 -3.328,2.231 -3.328,3.914 0,1.37 0.548,2.231 1.41,2.779 0.822,0.548 1.918,0.822 3.053,0.822 1.957,0 3.327,-0.274 4.462,-1.096 1.37,-0.548 1.918,-0.861 2.231,-0.861 0,0 0.274,0 0.548,0.313 v 0 z m 22.594,-25.052 c 0,0.548 0,0.822 -0.274,0.822 0,0.274 -0.274,0.274 -0.548,0.274 v 0 H 236.23 v 9.199 h 7.789 v 0 c 0.548,0 0.861,0 0.861,0.274 0,0 0.274,0.274 0.274,0.822 v 0 2.779 0 c 0,0.587 0,0.861 -0.274,0.861 0,0.275 -0.313,0.275 -0.861,0.275 v 0 h -7.789 v 7.515 h 8.924 v 0 c 0.274,0 0.548,0 0.548,0 0.275,0.274 0.549,0.548 0.549,0.822 v 0 l 0.822,3.093 v 0 c 0,0 0,0.274 0.313,0.274 0,0 0,0.274 0,0.274 0,0.274 -0.313,0.274 -0.313,0.548 -0.274,0 -0.548,0 -0.822,0 v 0 h -15.306 v 0 c -0.548,0 -0.861,0 -0.861,-0.274 -0.274,0 -0.274,-0.274 -0.274,-0.822 v 0 -29.554 0 c 0,-0.548 0,-0.822 0.274,-0.822 0,-0.274 0.313,-0.274 0.861,-0.274 v 0 h 15.306 v 0 c 0.274,0 0.548,0 0.548,0.274 0.274,0 0.274,0.274 0.274,0.822 v 0 z m 27.056,27.01 c 0,0.274 0,0.548 -0.274,0.548 0,0.274 -0.274,0.274 -0.822,0.274 v 0 h -3.053 v 0 c -0.587,0 -0.861,0 -0.861,-0.274 -0.274,0 -0.274,-0.274 -0.274,-0.548 v 0 -14.758 0 c 0,-0.587 0,-1.683 0,-2.818 0,-1.37 0.274,-2.505 0.274,-3.327 v 0 h -0.274 v 0 c -0.274,1.135 -0.548,2.231 -1.097,3.327 -0.274,1.135 -0.861,2.231 -1.683,3.64 v 0 l -7.515,14.21 v 0 c -0.274,0.274 -0.274,0.274 -0.548,0.548 0,0 -0.274,0 -0.548,0 v 0 h -3.641 v 0 c -0.548,0 -0.822,0 -0.822,-0.274 -0.274,0 -0.274,-0.274 -0.274,-0.548 v 0 -29.828 0 c 0,-0.548 0,-0.822 0.274,-0.822 0,-0.274 0.274,-0.274 0.822,-0.274 v 0 h 3.053 v 0 c 0.588,0 0.862,0 0.862,0.274 0.274,0 0.274,0.274 0.274,0.822 v 0 16.714 0 c 0,1.135 0,1.958 0,3.093 0,0.822 -0.274,1.644 -0.274,1.918 v 0 h 0.274 v 0 c 0.274,-1.096 0.548,-1.918 0.822,-3.053 0.548,-0.823 1.135,-1.958 1.683,-3.328 v 0 l 8.612,-15.618 v 0 c 0,-0.274 0.274,-0.548 0.274,-0.548 0.313,-0.274 0.587,-0.274 0.861,-0.274 v 0 h 2.779 v 0 c 0.548,0 0.822,0 0.822,0.274 0.274,0 0.274,0.274 0.274,0.822 v 0 z M 25.091,62.241 c 0,0.588 0,0.862 0,1.136 -0.313,0.274 -0.587,0.274 -0.861,0.274 v 0 h -4.462 v 0 c -0.274,0 -0.548,0 -0.548,0 -0.274,-0.274 -0.274,-0.274 -0.548,-0.548 v 0 L 14.757,51.125 v 0 c -0.548,-1.41 -0.822,-2.506 -1.096,-3.367 -0.274,-0.548 -0.274,-1.37 -0.548,-2.192 v 0 0 c -0.313,1.918 -0.861,3.601 -1.409,5.559 v 0 L 7.79,63.103 v 0 c 0,0.274 -0.274,0.274 -0.274,0.548 -0.274,0 -0.274,0 -0.822,0 v 0 H 2.231 v 0 c -0.274,0 -0.548,0 -0.548,-0.274 -0.274,0 -0.274,-0.274 -0.274,-0.548 v 0 L 0,33.001 v 0 c 0,-0.548 0,-0.822 0.274,-0.822 0.274,-0.274 0.274,-0.274 0.861,-0.274 v 0 h 3.327 v 0 c 0.274,0 0.548,0 0.548,0.274 0.274,0 0.274,0.274 0.274,0.822 v 0 l 0.588,15.618 v 0 c 0,0.822 0,1.957 0,3.602 0,1.409 0,2.779 0,3.64 v 0 0 C 6.146,55 6.42,53.63 6.694,52.221 6.968,50.85 7.242,49.441 7.516,48.619 v 0 l 2.779,-8.925 v 0 c 0.313,-0.274 0.313,-0.548 0.313,-0.548 0.274,-0.274 0.548,-0.274 0.822,-0.274 v 0 h 3.053 v 0 c 0.274,0 0.548,0 0.861,0.274 0,0 0,0.274 0.274,0.548 v 0 l 2.78,8.925 v 0 c 0.274,0.822 0.548,2.231 0.822,3.602 0.548,1.409 0.548,2.779 0.822,3.64 v 0 0 c 0,-0.861 0,-2.231 0,-3.64 0.313,-1.645 0.313,-2.78 0.313,-3.876 v 0 l 0.274,-15.344 v 0 c 0,-0.548 0,-0.822 0.274,-0.822 0,-0.274 0.274,-0.274 0.548,-0.274 v 0 h 4.188 v 0 c 0.274,0 0.548,0 0.548,0.274 0.274,0 0.274,0.274 0.274,0.822 v 0 z" /><path
       inkscape:connector-curvature="0"
       id="path4546"
       style="fill:#000000;fill-opacity:1;fill-rule:evenodd;stroke:none"
       d="m 79.479,7.498 h 0.082 l 5.408,-7.211 v 0 c 0,-0.041 0.082,-0.123 0.205,-0.164 C 85.215,0.041 85.297,0 85.338,0 c 0.082,0 0.123,0 0.205,0.041 0.041,0.082 0.123,0.082 0.246,0.123 v 0 l 1.885,0.942 v 0 c 0.081,0.082 0.122,0.082 0.204,0.123 0.041,0.082 0.123,0.164 0.123,0.205 0,0.082 0,0.205 -0.082,0.205 -0.041,0.041 -0.041,0.123 -0.123,0.123 v 0 l -5.531,6.925 5.04,6.515 v 0 c 0.041,0.082 0.041,0.123 0.123,0.205 0,0 0.041,0.122 0.041,0.204 0,0.041 -0.041,0.123 -0.123,0.164 -0.041,0.082 -0.123,0.082 -0.164,0.123 v 0 l -1.639,0.82 v 0 c -0.082,0.082 -0.205,0.082 -0.246,0.123 -0.082,0 -0.123,0.082 -0.205,0.082 -0.041,0 -0.123,-0.082 -0.164,-0.123 -0.082,-0.082 -0.164,-0.123 -0.205,-0.205 v 0 L 79.561,9.424 h -0.082 v 6.597 0 c 0,0.205 -0.041,0.328 -0.123,0.41 -0.041,0.041 -0.164,0.123 -0.369,0.123 v 0 h -2.213 v 0 c -0.164,0 -0.287,-0.082 -0.369,-0.123 -0.041,-0.082 -0.122,-0.205 -0.122,-0.41 v 0 -15.161 0 c 0,-0.163 0.081,-0.286 0.122,-0.409 0.082,-0.082 0.205,-0.082 0.369,-0.082 v 0 h 2.213 v 0 c 0.205,0 0.328,0 0.369,0.082 0.082,0.123 0.123,0.246 0.123,0.409 v 0 z m 23.204,-5.367 c 0,0.205 0,0.368 -0.082,0.45 -0.041,0.041 -0.164,0.041 -0.41,0.041 v 0 h -1.27 v 11.637 h 1.27 v 0 c 0.246,0 0.369,0 0.41,0.082 0.082,0.041 0.082,0.246 0.082,0.451 v 0 1.229 0 c 0,0.205 0,0.41 -0.082,0.451 -0.041,0.082 -0.164,0.082 -0.41,0.082 v 0 h -5.736 v 0 c -0.246,0 -0.369,0 -0.451,-0.082 -0.041,-0.041 -0.041,-0.246 -0.041,-0.451 v 0 -1.229 0 c 0,-0.205 0,-0.41 0.041,-0.451 0.082,-0.082 0.205,-0.082 0.451,-0.082 v 0 h 1.27 V 2.622 h -1.27 v 0 c -0.246,0 -0.369,0 -0.451,-0.041 -0.041,-0.082 -0.041,-0.245 -0.041,-0.45 v 0 -1.271 0 c 0,-0.163 0,-0.368 0.041,-0.409 0.082,-0.082 0.205,-0.082 0.451,-0.082 v 0 h 5.736 v 0 c 0.246,0 0.369,0 0.41,0.082 0.082,0.041 0.082,0.246 0.082,0.409 v 0 z m 18.277,12.948 c 0.041,0.123 0.041,0.205 0.123,0.246 0,0.082 0,0.082 0,0.163 -0.082,0.246 -0.573,0.492 -1.434,0.861 -0.901,0.328 -1.967,0.492 -3.114,0.574 -1.434,0 -2.622,-0.369 -3.647,-1.148 -0.983,-0.737 -1.516,-2.007 -1.557,-3.687 0,-0.943 0.164,-1.721 0.574,-2.295 0.369,-0.492 0.86,-0.983 1.516,-1.311 1.229,-0.697 2.295,-1.188 3.237,-1.639 0.942,-0.451 1.475,-1.107 1.516,-2.131 0,-0.696 -0.164,-1.27 -0.574,-1.639 -0.368,-0.328 -0.86,-0.492 -1.557,-0.492 -1.024,0.041 -1.884,0.164 -2.622,0.492 -0.778,0.328 -1.147,0.492 -1.27,0.492 -0.082,0 -0.082,0 -0.123,-0.041 -0.082,0 -0.082,-0.082 -0.123,-0.123 v 0 l -0.533,-1.598 v 0 c -0.041,-0.041 -0.041,-0.164 -0.123,-0.246 0,-0.041 0,-0.123 0,-0.123 0.082,-0.246 0.574,-0.492 1.516,-0.86 1.025,-0.328 2.131,-0.533 3.401,-0.574 1.516,0 2.705,0.492 3.647,1.393 0.943,0.861 1.393,2.049 1.475,3.565 0,0.901 -0.205,1.639 -0.573,2.336 -0.41,0.614 -0.902,1.147 -1.476,1.557 -1.106,0.778 -2.171,1.352 -3.196,1.761 -1.024,0.451 -1.557,1.066 -1.639,1.885 0,0.697 0.246,1.23 0.697,1.475 0.451,0.246 0.942,0.369 1.516,0.369 0.861,-0.082 1.639,-0.205 2.254,-0.492 0.573,-0.327 0.942,-0.532 1.065,-0.532 0.082,0 0.123,0.082 0.246,0.205 v 0 z M 139.412,2.458 c 0,0.164 0,0.287 -0.041,0.369 -0.082,0.041 -0.246,0.123 -0.45,0.123 v 0 h -5.04 v 4.589 h 4.056 v 0 c 0.164,0 0.287,0.082 0.369,0.123 0.041,0.082 0.123,0.205 0.041,0.369 v 0 1.598 0 c 0.082,0.164 0,0.287 -0.041,0.369 -0.082,0.041 -0.205,0.123 -0.369,0.123 v 0 h -4.056 v 3.851 h 4.589 v 0 c 0.082,0 0.205,0 0.287,0.041 0.123,0.082 0.164,0.123 0.246,0.328 v 0 l 0.409,1.557 v 0 c 0.082,0.123 0.082,0.205 0.082,0.205 0,0.041 0,0.123 0,0.164 0.082,0.082 0,0.164 -0.082,0.205 -0.123,0.082 -0.246,0.082 -0.491,0.082 v 0 h -7.745 v 0 c -0.164,0 -0.286,-0.082 -0.368,-0.123 -0.041,-0.082 -0.123,-0.205 -0.123,-0.41 v 0 -15.161 0 c 0,-0.163 0.082,-0.286 0.123,-0.368 0.082,-0.041 0.204,-0.123 0.368,-0.123 v 0 h 7.745 v 0 c 0.245,0 0.368,0.082 0.45,0.123 0.041,0.082 0.041,0.205 0.041,0.368 v 0 z m 20.778,13.563 c 0,0.205 -0.082,0.328 -0.123,0.41 -0.082,0.041 -0.205,0.123 -0.41,0.123 v 0 h -1.68 v 0 c -0.205,0 -0.328,-0.082 -0.369,-0.123 -0.082,-0.082 -0.123,-0.205 -0.123,-0.41 v 0 -7.457 0 c 0,-0.41 0,-0.902 0.041,-1.516 0,-0.656 0,-1.148 0,-1.598 v 0 h -0.041 v 0 c -0.122,0.532 -0.327,1.065 -0.532,1.639 -0.246,0.573 -0.533,1.188 -0.861,1.844 v 0 l -3.892,7.293 v 0 c -0.082,0.123 -0.123,0.205 -0.205,0.246 -0.041,0.082 -0.164,0.082 -0.369,0.082 v 0 h -1.885 v 0 c -0.205,0 -0.328,-0.082 -0.369,-0.123 -0.081,-0.082 -0.122,-0.205 -0.122,-0.41 v 0 -15.161 0 c 0,-0.163 0.041,-0.286 0.122,-0.409 0.041,-0.082 0.164,-0.082 0.369,-0.082 v 0 h 1.68 v 0 c 0.205,0 0.328,0 0.41,0.082 0.041,0.123 0.123,0.246 0.123,0.409 v 0 8.523 0 c 0,0.533 0,1.066 -0.082,1.557 0,0.492 0,0.82 0,1.025 v 0 h 0.082 v 0 c 0.041,-0.533 0.246,-1.025 0.41,-1.516 0.286,-0.533 0.532,-1.066 0.901,-1.721 v 0 l 4.343,-8.031 v 0 c 0.041,-0.123 0.123,-0.205 0.164,-0.246 0.082,-0.082 0.205,-0.082 0.41,-0.082 v 0 h 1.475 v 0 c 0.205,0 0.41,0 0.451,0.082 0.082,0.123 0.082,0.246 0.082,0.409 v 0 z m 15.629,-2.294 h 2.909 v 0 c 0.123,0 0.246,0 0.328,0.041 0.123,0 0.164,0.122 0.245,0.327 v 0 l 0.492,1.885 v 0 c 0,0.041 0.082,0.123 0.082,0.123 0,0.041 0,0.123 0,0.164 0,0.082 -0.082,0.205 -0.123,0.205 -0.082,0.082 -0.287,0.082 -0.451,0.082 v 0 h -9.752 v 0 c -0.204,0 -0.245,0 -0.327,-0.082 -0.041,-0.041 -0.041,-0.205 -0.041,-0.328 v 0 -2.049 0 c 0,-0.123 0,-0.246 0.041,-0.327 0.082,-0.041 0.123,-0.041 0.327,-0.041 v 0 h 3.074 V 0.86 v 0 c 0,-0.163 0.082,-0.286 0.123,-0.409 0.081,-0.082 0.204,-0.082 0.368,-0.082 v 0 h 2.213 v 0 c 0.205,0 0.328,0 0.369,0.082 0.082,0.123 0.123,0.246 0.123,0.409 v 0 z M 196.94,2.458 c 0,0.164 0,0.287 -0.041,0.369 -0.082,0.041 -0.246,0.123 -0.45,0.123 v 0 h -5.04 v 4.589 h 4.056 v 0 c 0.164,0 0.287,0.082 0.369,0.123 0.041,0.082 0.123,0.205 0.041,0.369 v 0 1.598 0 c 0.082,0.164 0,0.287 -0.041,0.369 -0.082,0.041 -0.205,0.123 -0.369,0.123 v 0 h -4.056 v 3.851 h 4.589 v 0 c 0.082,0 0.205,0 0.287,0.041 0.123,0.082 0.164,0.123 0.246,0.328 v 0 l 0.409,1.557 v 0 c 0.082,0.123 0.082,0.205 0.082,0.205 0,0.041 0,0.123 0,0.164 0.082,0.082 0,0.164 -0.082,0.205 -0.123,0.082 -0.246,0.082 -0.491,0.082 v 0 h -7.745 v 0 c -0.164,0 -0.286,-0.082 -0.368,-0.123 -0.041,-0.082 -0.123,-0.205 -0.123,-0.41 v 0 -15.161 0 c 0,-0.163 0.082,-0.286 0.123,-0.368 0.082,-0.041 0.204,-0.123 0.368,-0.123 v 0 h 7.745 v 0 c 0.245,0 0.368,0.082 0.45,0.123 0.041,0.082 0.041,0.205 0.041,0.368 v 0 z m 12.911,7.048 v 4.589 h 0.86 v 0 c 0.656,0.041 1.27,-0.082 1.762,-0.327 0.533,-0.205 0.82,-0.82 0.82,-1.803 0,-1.107 -0.287,-1.762 -0.82,-2.09 -0.533,-0.328 -1.229,-0.451 -2.008,-0.369 v 0 z m 0,-2.458 h 1.106 l 3.237,-6.31 v 0 C 214.317,0.492 214.44,0.287 214.481,0.164 214.645,0.041 214.686,0 214.768,0 c 0,0 0.041,0 0.123,0 0.041,0 0.122,0.041 0.163,0.041 v 0 l 1.967,0.574 v 0 c 0.123,0 0.246,0.082 0.369,0.123 0.082,0 0.123,0.081 0.123,0.122 0,0.082 0,0.205 -0.041,0.246 -0.082,0.082 -0.082,0.123 -0.123,0.205 v 0 l -3.524,6.31 v 0 c 0.492,0.164 1.066,0.533 1.68,1.189 0.615,0.614 0.943,1.68 1.025,3.196 -0.082,1.434 -0.41,2.458 -1.025,3.155 -0.696,0.614 -1.434,0.983 -2.253,1.188 -0.902,0.123 -1.639,0.205 -2.295,0.205 v 0 h -3.811 v 0 c -0.205,0 -0.327,0 -0.368,-0.082 -0.082,-0.041 -0.123,-0.246 -0.123,-0.451 v 0 -15.161 0 c 0,-0.163 0.041,-0.286 0.123,-0.409 0.041,-0.082 0.163,-0.082 0.368,-0.082 v 0 h 2.213 v 0 c 0.164,0 0.287,0 0.369,0.082 0.041,0.123 0.123,0.246 0.123,0.409 v 0 z M 66.24,15.079 c 0.041,0.123 0.041,0.205 0.123,0.246 0,0.082 0,0.082 0,0.163 -0.082,0.246 -0.573,0.492 -1.434,0.861 -0.901,0.328 -1.967,0.492 -3.114,0.574 -1.434,0 -2.622,-0.369 -3.647,-1.148 -0.983,-0.737 -1.516,-2.007 -1.557,-3.687 0,-0.943 0.164,-1.721 0.574,-2.295 0.369,-0.492 0.86,-0.983 1.516,-1.311 1.229,-0.697 2.295,-1.188 3.237,-1.639 0.942,-0.451 1.475,-1.107 1.516,-2.131 0,-0.696 -0.164,-1.27 -0.574,-1.639 -0.368,-0.328 -0.86,-0.492 -1.557,-0.492 -1.024,0.041 -1.884,0.164 -2.622,0.492 -0.778,0.328 -1.147,0.492 -1.27,0.492 -0.082,0 -0.082,0 -0.123,-0.041 -0.082,0 -0.082,-0.082 -0.123,-0.123 v 0 L 56.652,1.803 v 0 C 56.611,1.762 56.611,1.639 56.529,1.557 c 0,-0.041 0,-0.123 0,-0.123 0.082,-0.246 0.574,-0.492 1.516,-0.86 C 59.07,0.246 60.176,0.041 61.446,0 c 1.516,0 2.705,0.492 3.647,1.393 0.943,0.861 1.393,2.049 1.475,3.565 0,0.901 -0.205,1.639 -0.573,2.336 -0.41,0.614 -0.902,1.147 -1.476,1.557 -1.106,0.778 -2.171,1.352 -3.196,1.761 -1.024,0.451 -1.557,1.066 -1.639,1.885 0,0.697 0.246,1.23 0.697,1.475 0.451,0.246 0.942,0.369 1.516,0.369 0.861,-0.082 1.639,-0.205 2.254,-0.492 0.573,-0.327 0.942,-0.532 1.065,-0.532 0.082,0 0.123,0.082 0.246,0.205 v 0 z" /><path
       inkscape:connector-curvature="0"
       id="path4548"
       style="fill:#f2d63a;fill-opacity:1;fill-rule:evenodd;stroke:none"
       d="m 227.507,155.901 c -3.463,19.639 -22.191,32.751 -41.829,29.288 -9.257,-1.632 -17.062,-6.657 -22.366,-13.57 4.536,11.09 14.483,19.686 27.157,21.92 19.638,3.463 38.365,-9.65 41.828,-29.288 1.83,-10.382 -0.974,-20.505 -6.923,-28.258 2.495,6.096 3.361,12.943 2.133,19.908" /></g></svg>